<?xml version="1.0" encoding="UTF-8"?>
<svg width="39px" height="40px" viewBox="0 0 39 40" version="1.1" xmlns="http://www.w3.org/2000/svg" xmlns:xlink="http://www.w3.org/1999/xlink">
    <title>interview(1)</title>
    <g id="Page-1" stroke="none" stroke-width="1" fill="none" fill-rule="evenodd">
        <g id="02_dashboard" transform="translate(-52.000000, -291.000000)" fill-rule="nonzero">
            <g id="interview(1)" transform="translate(52.000000, 291.000000)">
                <path d="M32.593745,35.0560156 L2.87597809,35.0560156 C1.30486853,35.0560156 0.0312310757,33.7752344 0.0312310757,32.1953125 L0.0312310757,4.82867187 C0.0312310757,3.24875 1.30486853,1.96796875 2.87597809,1.96796875 L32.593745,1.96796875 C34.1648546,1.96796875 35.438492,3.24875 35.438492,4.82867187 L35.438492,32.1953125 C35.438492,33.7752344 34.1648546,35.0560156 32.593745,35.0560156 Z" id="Path" fill="#DCEAFF"></path>
                <path d="M32.593745,1.96796875 L29.8423805,1.96796875 C31.41349,1.96796875 32.6871275,3.24875 32.6871275,4.82867188 L32.6871275,32.1953125 C32.6871275,33.7752344 31.41349,35.0560156 29.8423805,35.0560156 L32.593745,35.0560156 C34.1648546,35.0560156 35.438492,33.7752344 35.438492,32.1953125 L35.438492,4.82867188 C35.438492,3.24875 34.1648546,1.96796875 32.593745,1.96796875 Z" id="Path" fill="#C2DDFF"></path>
                <path d="M35.438492,9.52515625 L0.0312310757,9.52515625 L0.0312310757,4.82867188 C0.0312310757,3.24875 1.30486853,1.96796875 2.87597809,1.96796875 L32.593745,1.96796875 C34.1648546,1.96796875 35.438492,3.24875 35.438492,4.82867188 L35.438492,9.52515625 Z" id="Path" fill="#FE9C83"></path>
                <path d="M32.593745,1.96796875 L29.8423805,1.96796875 C31.41349,1.96796875 32.6871275,3.24875 32.6871275,4.82867188 L32.6871275,9.52515625 L35.438492,9.52515625 L35.438492,4.82867188 C35.438492,3.24875 34.1649323,1.96796875 32.593745,1.96796875 Z" id="Path" fill="#FF6B61"></path>
                <g id="Group" transform="translate(4.195219, 0.000000)" fill="#6F6471">
                    <path d="M1.78234661,5.279375 L0.963268924,5.279375 C0.469165339,5.279375 0.0685219124,4.8765625 0.0685219124,4.37960937 L0.0685219124,0.899765625 C0.0685219124,0.4028125 0.469165339,-3.55271368e-15 0.963268924,-3.55271368e-15 L1.78234661,-3.55271368e-15 C2.2764502,-3.55271368e-15 2.67709363,0.4028125 2.67709363,0.899765625 L2.67709363,4.37960937 C2.67709363,4.87648437 2.27652789,5.279375 1.78234661,5.279375 L1.78234661,5.279375 Z" id="Path"></path>
                    <path d="M9.89356972,5.279375 L9.07449203,5.279375 C8.58038845,5.279375 8.17974502,4.8765625 8.17974502,4.37960937 L8.17974502,0.899765625 C8.17974502,0.402890625 8.58031076,-3.55271368e-15 9.07449203,-3.55271368e-15 L9.89356972,-3.55271368e-15 C10.3876733,-3.55271368e-15 10.7883167,0.4028125 10.7883167,0.899765625 L10.7883167,4.37960937 C10.7883167,4.87648437 10.387751,5.279375 9.89356972,5.279375 Z" id="Path"></path>
                    <path d="M18.0047928,5.279375 L17.1857151,5.279375 C16.6916116,5.279375 16.2909681,4.8765625 16.2909681,4.37960937 L16.2909681,0.899765625 C16.2909681,0.4028125 16.6915339,-3.55271368e-15 17.1857151,-3.55271368e-15 L18.0047928,-3.55271368e-15 C18.4988964,-3.55271368e-15 18.8995398,0.4028125 18.8995398,0.899765625 L18.8995398,4.37960937 C18.8995398,4.87648437 18.4989741,5.279375 18.0047928,5.279375 Z" id="Path"></path>
                    <path d="M26.1160159,5.279375 L25.2969382,5.279375 C24.8028347,5.279375 24.4021912,4.8765625 24.4021912,4.37960937 L24.4021912,0.899765625 C24.4021912,0.4028125 24.802757,-3.55271368e-15 25.2969382,-3.55271368e-15 L26.1160159,-3.55271368e-15 C26.6101195,-3.55271368e-15 27.0107629,0.4028125 27.0107629,0.899765625 L27.0107629,4.37960937 C27.0106853,4.87648437 26.6101195,5.279375 26.1160159,5.279375 Z" id="Path"></path>
                </g>
                <g id="Group" transform="translate(3.496016, 12.734375)" fill="#A4CCFF">
                    <ellipse id="Oval" cx="2.01370518" cy="2.05789063" rx="1.98938845" ry="2.00054687"></ellipse>
                    <ellipse id="Oval" cx="10.0578825" cy="2.05789063" rx="1.98938845" ry="2.00054687"></ellipse>
                    <ellipse id="Oval" cx="18.1020598" cy="2.05789063" rx="1.98938845" ry="2.00054687"></ellipse>
                    <ellipse id="Oval" cx="26.1463147" cy="2.05789063" rx="1.98938845" ry="2.00054687"></ellipse>
                    <ellipse id="Oval" cx="2.01370518" cy="9.32546875" rx="1.98938845" ry="2.00054687"></ellipse>
                    <ellipse id="Oval" cx="10.0578825" cy="9.32546875" rx="1.98938845" ry="2.00054687"></ellipse>
                    <ellipse id="Oval" cx="18.1020598" cy="9.32546875" rx="1.98938845" ry="2.00054687"></ellipse>
                    <ellipse id="Oval" cx="26.1463147" cy="9.32546875" rx="1.98938845" ry="2.00054687"></ellipse>
                    <ellipse id="Oval" cx="2.01370518" cy="16.7671875" rx="1.98938845" ry="2.00054688"></ellipse>
                    <ellipse id="Oval" cx="10.0578825" cy="16.7671875" rx="1.98938845" ry="2.00054688"></ellipse>
                    <ellipse id="Oval" cx="18.1020598" cy="16.7671875" rx="1.98938845" ry="2.00054688"></ellipse>
                </g>
                <g id="Group" transform="translate(25.326693, 26.328125)">
                    <ellipse id="Oval" fill="#95D5A4" cx="6.8545996" cy="6.84625" rx="6.78755378" ry="6.825625"></ellipse>
                    <path d="M5.69353386,9.26398437 C5.53970916,9.26398437 5.38588446,9.20492188 5.26849602,9.08695312 L3.98429283,7.79554688 C3.74959363,7.55945313 3.74959363,7.17679687 3.98429283,6.94070313 C4.21906972,6.70476563 4.59959163,6.70476563 4.83436853,6.94070313 L5.69353386,7.80476562 L8.87483068,4.60554688 C9.10960757,4.36960938 9.49012948,4.36960938 9.72490637,4.60554688 C9.95960558,4.84164063 9.95960558,5.22429688 9.72490637,5.46039063 L6.11849402,9.08703125 C6.00118327,9.20492188 5.84728088,9.26398437 5.69353386,9.26398437 Z" id="Path" fill="#FFFFFF"></path>
                </g>
            </g>
        </g>
    </g>
</svg>