<?xml version="1.0" encoding="UTF-8"?>
<svg width="38px" height="40px" viewBox="0 0 38 40" version="1.1" xmlns="http://www.w3.org/2000/svg" xmlns:xlink="http://www.w3.org/1999/xlink">
    <title>001-experience</title>
    <g id="Page-1" stroke="none" stroke-width="1" fill="none" fill-rule="evenodd">
        <g id="02_dashboard" transform="translate(-169.000000, -291.000000)" fill-rule="nonzero">
            <g id="001-experience" transform="translate(169.000000, 291.000000)">
                <g id="Group">
                    <path d="M27.6381694,40 L2.35804132,40 C1.09391322,40 0.0690909091,38.9802344 0.0690909091,37.7223437 L0.0690909091,2.27765625 C0.0690909091,1.01976562 1.09383471,-3.55271368e-15 2.35804132,-3.55271368e-15 L27.6381694,-3.55271368e-15 C28.9022975,-3.55271368e-15 29.9271198,1.01976562 29.9271198,2.27765625 L29.9271198,37.7223437 C29.9271198,38.9802344 28.902376,40 27.6381694,40 Z" id="Path" fill="#FFE8D2"></path>
                    <path d="M27.6376983,-3.19744231e-14 L25.5265,-3.19744231e-14 L25.5265,10.36 C25.5265,24.1126562 14.3176777,35.2614062 0.490859504,35.2614062 L0.0690909091,35.2614062 L0.0690909091,37.7228125 C0.0690909091,38.9804687 1.09407025,40 2.3585124,40 L27.6376983,40 C28.9021405,40 29.9271198,38.9804687 29.9271198,37.7228125 L29.9271198,2.2771875 C29.9271198,1.01953125 28.902062,-3.19744231e-14 27.6376983,-3.19744231e-14 Z" id="Path" fill="#F7D4AD"></path>
                    <path d="M26.628343,27.6404688 L5.43706198,27.6404688 C5.10063636,27.6404688 4.82796281,27.3692188 4.82796281,27.0346094 C4.82796281,26.7 5.10063636,26.42875 5.43706198,26.42875 L26.6284215,26.42875 C26.9648471,26.42875 27.2375207,26.7 27.2375207,27.0346094 C27.2375207,27.3692188 26.9648471,27.6404688 26.628343,27.6404688 L26.628343,27.6404688 Z" id="Path" fill="#E2A876"></path>
                    <path d="M26.628343,30.8951562 L5.43706198,30.8951562 C5.10063636,30.8951562 4.82796281,30.6239063 4.82796281,30.2892969 C4.82796281,29.9546875 5.10063636,29.6834375 5.43706198,29.6834375 L26.6284215,29.6834375 C26.9648471,29.6834375 27.2375207,29.9546875 27.2375207,30.2892969 C27.2375207,30.6239063 26.9648471,30.8951562 26.628343,30.8951562 L26.628343,30.8951562 Z" id="Path" fill="#E2A876"></path>
                    <path d="M26.628343,34.1499219 L5.43706198,34.1499219 C5.10063636,34.1499219 4.82796281,33.8786719 4.82796281,33.5440625 C4.82796281,33.2094531 5.10063636,32.9382031 5.43706198,32.9382031 L26.6284215,32.9382031 C26.9648471,32.9382031 27.2375207,33.2094531 27.2375207,33.5440625 C27.2375207,33.87875 26.9648471,34.1499219 26.628343,34.1499219 L26.628343,34.1499219 Z" id="Path" fill="#E2A876"></path>
                    <path d="M26.628343,37.4046875 L5.43706198,37.4046875 C5.10063636,37.4046875 4.82796281,37.1334375 4.82796281,36.7988281 C4.82796281,36.4642187 5.10063636,36.1929687 5.43706198,36.1929687 L26.6284215,36.1929687 C26.9648471,36.1929687 27.2375207,36.4642187 27.2375207,36.7988281 C27.2375207,37.1334375 26.9648471,37.4046875 26.628343,37.4046875 L26.628343,37.4046875 Z" id="Path" fill="#E2A876"></path>
                    <path d="M26.628343,21.1309375 L5.43706198,21.1309375 C5.10063636,21.1309375 4.82796281,20.8596875 4.82796281,20.5250781 C4.82796281,20.1904687 5.10063636,19.9192187 5.43706198,19.9192187 L26.6284215,19.9192187 C26.9648471,19.9192187 27.2375207,20.1904687 27.2375207,20.5250781 C27.2375207,20.8596875 26.9648471,21.1309375 26.628343,21.1309375 L26.628343,21.1309375 Z" id="Path" fill="#E2A876"></path>
                    <path d="M26.628343,24.385625 L5.43706198,24.385625 C5.10063636,24.385625 4.82796281,24.114375 4.82796281,23.7797656 C4.82796281,23.4451563 5.10063636,23.1739063 5.43706198,23.1739063 L26.6284215,23.1739063 C26.9648471,23.1739063 27.2375207,23.4451563 27.2375207,23.7797656 C27.2375207,24.1144531 26.9648471,24.385625 26.628343,24.385625 L26.628343,24.385625 Z" id="Path" fill="#E2A876"></path>
                    <g transform="translate(2.512397, 19.843750)" fill="#E2A876" id="Oval">
                        <ellipse cx="0.684" cy="7.19078125" rx="1" ry="1"></ellipse>
                        <ellipse cx="0.684" cy="0.681328125" rx="1" ry="1"></ellipse>
                        <ellipse cx="0.684" cy="3.93609375" rx="1" ry="1"></ellipse>
                        <ellipse cx="0.684" cy="10.4455469" rx="1" ry="1"></ellipse>
                        <ellipse cx="0.684" cy="13.7003125" rx="1" ry="1"></ellipse>
                        <ellipse cx="0.684" cy="16.9550781" rx="1" ry="1"></ellipse>
                    </g>
                    <g transform="translate(10.442149, 3.671875)" id="Path">
                        <g transform="translate(0.000000, 0.390625)">
                            <path d="M7.57801653,12.6376563 L1.50531818,12.6376563 C0.567173554,12.6376563 -0.139123967,11.7879688 0.0374504132,10.8717188 L0.275971074,9.63203125 C0.344512397,9.27640625 0.483243802,8.94484375 0.68007438,8.65359375 C0.990983471,8.18945313 1.44721901,7.82679688 1.99225207,7.62992188 L4.55897934,6.70382813 L7.10592149,7.6228125 C7.65370248,7.82078125 8.11150826,8.18617188 8.42296694,8.65414063 L8.42296694,8.6546875 C8.62254545,8.95304688 8.76182645,9.29226563 8.82761983,9.6565625 L9.04918182,10.8891406 C9.2131157,11.8005469 8.50909504,12.6376563 7.57801653,12.6376563 L7.57801653,12.6376563 Z" fill="#B8B6FF"></path>
                            <polygon fill="#ECBD83" points="5.9634876 7.21421875 4.52741736 8.46109375 3.09228926 7.21421875 3.09228926 5.30015625 5.9634876 5.30015625"></polygon>
                            <path d="M6.80812397,1.92382812 L6.80812397,3.54609375 C6.80812397,4.81820313 5.76139669,5.88960938 4.48266529,5.86507813 C3.24342562,5.84132813 2.24663223,4.83476563 2.24663223,3.596875 L2.24663223,1.92382812 C2.24663223,0.6709375 3.26776446,0.017109375 4.52733884,0.017109375 C5.78707025,0.017109375 6.80812397,0.6709375 6.80812397,1.92382812 L6.80812397,1.92382812 Z" fill="#F7D4AD"></path>
                            <g transform="translate(0.000000, 8.593750)" fill="#A09EEF">
                                <path d="M2.15673554,1.85367188 L2.15673554,4.04398438 L1.50531818,4.04398438 C0.567173554,4.04398438 -0.139123967,3.19429688 0.0374504132,2.27804687 L0.275971074,1.03835937 C0.344512397,0.682734375 0.483243802,0.351171875 0.68007438,0.059921875 C1.52282645,0.22734375 2.15673554,0.966875 2.15673554,1.85367188 Z"></path>
                                <path d="M7.57801653,4.04390625 L6.95015289,4.04390625 L6.95015289,1.85359375 C6.95015289,0.9684375 7.58241322,0.229453125 8.42296694,0.0609375 C8.62254545,0.359296875 8.76182645,0.698515625 8.82761983,1.0628125 L9.04918182,2.29539063 C9.2131157,3.20679687 8.50909504,4.04390625 7.57801653,4.04390625 L7.57801653,4.04390625 Z"></path>
                            </g>
                        </g>
                        <path d="M6.80812397,2.20382813 C6.72270248,2.26898438 6.65918595,2.31578125 6.65918595,2.31578125 C6.49760744,2.40859375 6.32221074,2.49359375 6.13417355,2.56867187 C5.2788595,2.90914063 4.44262397,2.92164063 4.0381281,2.63976562 C4.0381281,2.63976562 3.6157314,2.32632812 3.45752893,2.12617187 C3.29932645,1.92601563 2.7961405,1.8753125 2.37908264,2.31578125 C2.33535124,2.361875 2.29099174,2.3921875 2.24671074,2.40992188 L2.24671074,2.31578125 C2.24671074,1.06203125 3.26823554,0.0459375 4.52875207,0.0459375 C5.15904959,0.0459375 5.72967769,0.300078125 6.14210331,0.711015625 C6.53073967,1.096875 6.77970248,1.62101563 6.80812397,2.20382813 Z" fill="#6E4848"></path>
                    </g>
                </g>
                <path d="M32.1980124,27.2308594 L30.127719,25.6185938 C30.0099504,25.526875 29.8443678,25.526875 29.7265992,25.6185938 L27.6563058,27.2308594 C27.4427521,27.3971875 27.1303512,27.2458594 27.1303512,26.9760156 L27.1303512,15.4167969 C27.1303512,15.2380469 27.2759917,15.0932031 27.4557066,15.0932031 L32.3986116,15.0932031 C32.5783264,15.0932031 32.7239669,15.238125 32.7239669,15.4167969 L32.7239669,26.9760938 C32.7239669,27.2458594 32.4115661,27.3971875 32.1980124,27.2308594 Z" id="Path" fill="#FF445C"></path>
                <path d="M37.9309091,10.94875 C37.9309091,11.9648438 36.8213719,12.7539844 36.4529917,13.6375 C36.0711074,14.5532812 36.2799504,15.8886719 35.5859793,16.57875 C34.8921653,17.26875 33.5502314,17.0600781 32.629595,17.4397656 C31.7416198,17.8059375 30.9482521,18.9098437 29.9271198,18.9098437 C28.9059876,18.9098437 28.1126198,17.8059375 27.2246446,17.4397656 C26.3040083,17.0601562 24.9621529,17.26875 24.2682603,16.57875 C23.5742893,15.8886719 23.7832107,14.5532812 23.4013264,13.6375 C23.0328678,12.7539844 21.9234091,11.9647656 21.9234091,10.94875 C21.9234091,9.93265625 23.0329463,9.14351562 23.401405,8.26 C23.7832893,7.34421875 23.5744463,6.00882812 24.2684174,5.31875 C24.9622314,4.62875 26.3041653,4.83742187 27.2248017,4.45773437 C28.1127769,4.0915625 28.9061446,2.98765625 29.9272769,2.98765625 C30.9484091,2.98765625 31.7417769,4.0915625 32.6297521,4.45773437 C33.5503884,4.83734375 34.8922438,4.62875 35.5861364,5.31875 C36.2801074,6.00882812 36.071186,7.34421875 36.4530702,8.26 C36.8213719,9.14351562 37.9309091,9.93265625 37.9309091,10.94875 L37.9309091,10.94875 Z" id="Path" fill="#FF8B59"></path>
                <path d="M30.0598058,7.01140625 L31.3452107,8.92117188 C31.3663306,8.9525 31.3978926,8.97539063 31.4344008,8.985625 L33.6577149,9.61140625 C33.7670826,9.6421875 33.8100289,9.77359375 33.7396818,9.86242188 L32.3108347,11.6685156 C32.2873595,11.698125 32.2752686,11.7351563 32.2767603,11.7728125 L32.3654008,14.0692969 C32.3697975,14.1822656 32.2573678,14.2635156 32.1507479,14.2244531 L29.9822355,13.4309375 C29.9466694,13.4178906 29.9075702,13.4178906 29.8720041,13.4309375 L27.7034917,14.2244531 C27.5967934,14.2635156 27.4844421,14.1822656 27.4887603,14.0692969 L27.5774008,11.7728125 C27.5788926,11.7351563 27.5668017,11.698125 27.5433264,11.6685156 L26.1144793,9.86242188 C26.0442107,9.77359375 26.0870785,9.6421875 26.1964463,9.61140625 L28.4197603,8.985625 C28.4562686,8.97539063 28.4879091,8.9525 28.5089504,8.92117188 L29.7943554,7.01140625 C29.8577149,6.91742188 29.9966033,6.91742188 30.0598058,7.01140625 L30.0598058,7.01140625 Z" id="Path" fill="#FEE07D"></path>
            </g>
        </g>
    </g>
</svg>