<?xml version="1.0" encoding="UTF-8"?>
<svg width="40px" height="40px" viewBox="0 0 40 40" version="1.1" xmlns="http://www.w3.org/2000/svg" xmlns:xlink="http://www.w3.org/1999/xlink">
    <title>009-interview-1</title>
    <g id="Page-1" stroke="none" stroke-width="1" fill="none" fill-rule="evenodd">
        <g id="02_dashboard" transform="translate(-52.000000, -426.000000)" fill-rule="nonzero">
            <g id="009-interview-1" transform="translate(52.000000, 426.000000)">
                <path d="M23.0427344,1.443125 C14.4751562,1.443125 7.52929688,8.3890625 7.52929688,16.9573437 C7.52929688,25.525625 14.4751562,32.4715625 23.0427344,32.4715625 C31.6110156,32.4715625 38.5569531,25.525625 38.5569531,16.9573437 C38.5569531,8.3890625 31.6110156,1.443125 23.0427344,1.443125 Z" id="Path" fill="#D2D2FF"></path>
                <g id="Group" transform="translate(6.015625, 0.000000)">
                    <path d="M27.9269531,18.1603906 L17.0274219,18.1603906 C16.6204687,18.1603906 16.2410937,17.9546094 16.0190625,17.6135156 L10.3136719,8.84617188 C9.95125,8.28929688 10.1089062,7.5440625 10.6657812,7.18164063 C11.2226562,6.81929688 11.9678125,6.97671875 12.3303125,7.53375 L17.6797656,15.7542188 L27.9267969,15.7542188 C28.59125,15.7542188 29.1298437,16.2928125 29.1298437,16.9572656 C29.1298437,17.6217188 28.5913281,18.1603906 27.9269531,18.1603906 Z" id="Path" fill="#FFFFFF"></path>
                    <g fill="#A09EEF">
                        <path d="M17.0270312,0 C7.6625,0 0.070546875,7.59203125 0.070546875,16.9573437 C0.070546875,26.3226563 7.6625,33.9146875 17.0270312,33.9146875 C26.3923437,33.9146875 33.984375,26.3226563 33.984375,16.9573437 C33.984375,7.59203125 26.3923437,0 17.0270312,0 Z M17.0189844,31.2078125 C9.14867187,31.2078125 2.76851563,24.8276562 2.76851563,16.9573437 C2.76851563,9.08703125 9.14867187,2.706875 17.0189844,2.706875 C24.8892969,2.706875 31.2695312,9.08703125 31.2695312,16.9573437 C31.2695312,24.8276562 24.8892969,31.2078125 17.0189844,31.2078125 Z" id="Shape"></path>
                        <circle id="Oval" cx="17.3130469" cy="16.6717188" r="2.32039062"></circle>
                    </g>
                </g>
                <g id="Group" transform="translate(0.000000, 19.140625)">
                    <path d="M13.6067187,0.048125 L10.7486719,0.048125 C8.505,0.048125 6.68617187,1.86695312 6.68617187,4.110625 L6.68617187,5.50953125 L17.6692187,5.50953125 L17.6692187,4.110625 C17.6692187,1.86695312 15.8503906,0.048125 13.6067187,0.048125 L13.6067187,0.048125 Z M15.2036719,5.1959375 L9.15179687,5.1959375 L9.15179687,4.16648438 C9.15179687,3.15007813 9.97578125,2.32617188 10.9921094,2.32617188 L13.3633594,2.32617188 C14.3797656,2.32617188 15.2036719,3.15015625 15.2036719,4.16648438 L15.2036719,5.1959375 Z" id="Shape" fill="#633C3E"></path>
                    <path d="M24.3554687,5.66789062 L24.3554687,19.6234375 C24.3554687,20.3060937 23.8021875,20.859375 23.1196094,20.859375 L1.23585937,20.859375 C0.55328125,20.859375 -4.08562073e-14,20.3060937 -4.08562073e-14,19.6234375 L-4.08562073e-14,5.66789062 C-4.08562073e-14,4.98523437 0.55328125,4.43195312 1.23585937,4.43195312 L23.1195312,4.43195312 C23.8021875,4.43195312 24.3554687,4.98523437 24.3554687,5.66789062 L24.3554687,5.66789062 Z" id="Path" fill="#FFC269"></path>
                    <g transform="translate(0.000000, 4.375000)" fill="#7C5757" id="Path">
                        <path d="M22.3791406,6.54890625 L13.0608594,8.93117188 C12.4814062,9.07929688 11.8739844,9.07929688 11.2945312,8.93117188 L1.97625,6.54890625 C0.8134375,6.25164063 -3.55271368e-14,5.2040625 -3.55271368e-14,4.00382813 L-3.55271368e-14,1.29257813 C-3.55271368e-14,0.61 0.553359375,0.056640625 1.2359375,0.056640625 L23.1195312,0.056640625 C23.8021094,0.056640625 24.3554687,0.61 24.3554687,1.29257813 L24.3554687,4.00382813 C24.3554687,5.2040625 23.5419531,6.25164063 22.3791406,6.54890625 Z"></path>
                        <path d="M3.22992188,16.484375 L1.23585938,16.484375 C0.55328125,16.484375 1.77635684e-15,15.9310938 1.77635684e-15,15.2484375 L1.77635684e-15,13.2549219 C1.78375,13.2549219 3.22992188,14.700625 3.22992188,16.484375 Z"></path>
                        <path d="M21.1255469,16.484375 L23.1196094,16.484375 C23.8022656,16.484375 24.3554688,15.9310938 24.3554688,15.2484375 L24.3554688,13.2549219 C22.5716406,13.2549219 21.1255469,14.700625 21.1255469,16.484375 Z"></path>
                    </g>
                    <g transform="translate(7.500000, 7.343750)" id="Path">
                        <g transform="translate(0.000000, 0.390625)">
                            <path d="M7.80617188,13.125 L1.546875,13.125 C0.57984375,13.125 -0.148125,12.2444531 0.03390625,11.2949219 L0.279765625,10.0103125 C0.350390625,9.64179688 0.4934375,9.29820313 0.696328125,8.99640625 C1.01679688,8.51546875 1.48703125,8.13960938 2.04882813,7.93554687 L4.69445313,6.97585937 L7.3196875,7.92820312 C7.88429688,8.13335937 8.35625,8.51203125 8.67726563,8.99695313 L8.67726563,8.9975 C8.88296875,9.30664062 9.0265625,9.65820312 9.094375,10.0357031 L9.32273438,11.3129687 C9.4915625,12.2574219 8.76585938,13.125 7.80617188,13.125 Z" fill="#C2DDFF"></path>
                            <path d="M6.14203125,7.50476562 L6.14148437,7.50523437 C5.29390625,8.24515625 4.02992188,8.24492187 3.18257813,7.50476562 L3.18257813,5.52117187 L6.14203125,5.52117187 L6.14203125,7.50476562 Z" fill="#ECBD83"></path>
                            <path d="M7.01265625,2.02234375 L7.01265625,3.7034375 C7.01265625,5.02171875 5.93382813,6.13203125 4.61578125,6.1065625 C3.33851563,6.08195312 2.31101562,5.03890625 2.31101562,3.75601562 L2.31101562,2.02226562 C2.31101562,0.72390625 3.36351562,0.04640625 4.661875,0.04640625 C5.96015625,0.046484375 7.01265625,0.7240625 7.01265625,2.02234375 L7.01265625,2.02234375 Z" fill="#F7D4AD"></path>
                            <g transform="translate(0.000000, 8.984375)" fill="#A4CCFF">
                                <path d="M2.21828125,1.87085938 L2.21828125,4.140625 L1.546875,4.140625 C0.57984375,4.140625 -0.148125,3.26007812 0.03390625,2.31054687 L0.279765625,1.0259375 C0.350390625,0.657421875 0.4934375,0.313828125 0.696328125,0.01203125 C1.56492188,0.185546875 2.21828125,0.951875 2.21828125,1.87085938 Z"></path>
                                <path d="M7.80617188,4.140625 L7.1590625,4.140625 L7.1590625,1.87085938 C7.1590625,0.95359375 7.81070313,0.187734375 8.67710938,0.013125 C8.8828125,0.322265625 9.02640625,0.673828125 9.09421875,1.05132812 L9.32257813,2.32859375 C9.4915625,3.27304687 8.76585938,4.140625 7.80617188,4.140625 L7.80617188,4.140625 Z"></path>
                            </g>
                        </g>
                        <path d="M7.01265625,2.29835937 C6.92460937,2.3659375 6.85914063,2.414375 6.85914063,2.414375 C6.69257812,2.510625 6.51179687,2.59859375 6.31796875,2.67640625 C5.43632813,3.02921875 4.57445312,3.0421875 4.1575,2.75007812 C4.1575,2.75007812 3.72210937,2.42523437 3.5590625,2.2178125 C3.39601563,2.01039063 2.87734375,1.9578125 2.44742188,2.414375 C2.40234375,2.46210937 2.35664063,2.49351562 2.3109375,2.51195313 L2.3109375,2.414375 C2.3109375,1.11507813 3.36382813,0.0621875 4.663125,0.0621875 C5.31273438,0.0621875 5.90101563,0.325546875 6.32609375,0.75140625 C6.72671875,1.15125 6.98328125,1.69445313 7.01265625,2.29835937 L7.01265625,2.29835937 Z" fill="#6E4848"></path>
                    </g>
                </g>
            </g>
        </g>
    </g>
</svg>