<?xml version="1.0" encoding="UTF-8"?>
<svg width="41px" height="40px" viewBox="0 0 41 40" version="1.1" xmlns="http://www.w3.org/2000/svg" xmlns:xlink="http://www.w3.org/1999/xlink">
    <title>002-united</title>
    <g id="Page-1" stroke="none" stroke-width="1" fill="none" fill-rule="evenodd">
        <g id="02_dashboard" transform="translate(-166.000000, -566.000000)" fill-rule="nonzero">
            <g id="002-united" transform="translate(166.000000, 566.000000)">
                <path d="M20.3694059,37.8165395 C20.0359053,37.8165395 19.7611657,37.5511767 19.7514763,37.2158006 C19.741787,36.874486 20.010588,36.5900571 20.3519026,36.5803678 C20.6938424,36.5647398 20.9810843,36.8294775 20.9960872,37.1707921 C21.0114026,37.5117942 20.7463523,37.800599 20.4050377,37.8156018 L20.3872218,37.8162269 C20.3812832,37.8165395 20.3753445,37.8165395 20.3694059,37.8165395 L20.3694059,37.8165395 Z M17.8833099,37.7233968 C17.8589303,37.7233968 17.8348632,37.7221466 17.8101711,37.7193336 L17.8086083,37.719021 C17.4688564,37.684952 17.2228723,37.3823947 17.2569413,37.0423303 C17.2910102,36.7025784 17.596068,36.4553441 17.9355073,36.4891005 L17.9545734,36.4909758 C18.2937002,36.5309834 18.5362461,36.8382291 18.4962385,37.1773558 C18.4593566,37.492103 18.192431,37.7233968 17.8833099,37.7233968 L17.8833099,37.7233968 Z M22.8498758,37.5327356 C22.560446,37.5327356 22.3019595,37.3286345 22.2441361,37.0338912 C22.1778735,36.6988277 22.3960399,36.3737662 22.7311034,36.3078161 L22.7426681,36.3056282 C23.0780441,36.2415536 23.4018554,36.4615953 23.4659301,36.7969713 C23.5300047,37.1320348 23.3102756,37.4561587 22.9748995,37.5202333 L22.9702112,37.521171 C22.9295784,37.528985 22.8895709,37.5327356 22.8498758,37.5327356 L22.8498758,37.5327356 Z M15.4303452,37.2523701 C15.376585,37.2523701 15.3218871,37.2451812 15.2671893,37.2304909 L15.2637512,37.2295533 C14.9340012,37.1417241 14.7370889,36.8032225 14.8246055,36.4734725 C14.9121221,36.14341 15.2503111,35.9468102 15.5800611,36.0340143 L15.592876,36.0374524 C15.9223135,36.1274694 16.1164127,36.4672213 16.0263956,36.7966588 C15.9513814,37.0717109 15.7022718,37.2523701 15.4303452,37.2523701 Z M25.2590823,36.872298 C25.0062219,36.872298 24.769302,36.7166436 24.6777221,36.465346 C24.5611375,36.1443477 24.726794,35.7895929 25.0474797,35.6730084 L25.0577941,35.6695702 C25.3787924,35.5542359 25.732922,35.7208299 25.848569,36.0421408 C25.9642159,36.3634516 25.7969967,36.7175812 25.4756858,36.8332282 L25.4703723,36.8351035 C25.400359,36.8604208 25.3290956,36.872298 25.2590823,36.872298 Z M13.075524,36.4090853 C12.9911331,36.4090853 12.9054918,36.391582 12.8232888,36.3543874 L12.8148497,36.3506367 C12.5038533,36.2096725 12.3660147,35.8433531 12.5069789,35.5323567 C12.647943,35.2213603 13.0139499,35.0835217 13.3252589,35.2244859 C13.6365678,35.3651376 13.7781572,35.7327072 13.6378181,36.0440162 C13.534361,36.2731221 13.3105686,36.4090853 13.075524,36.4090853 Z M27.5363887,35.850542 C27.3150968,35.850542 27.1016188,35.7317695 26.9903478,35.5232925 C26.8293798,35.2219854 26.9434639,34.8472269 27.244771,34.6865715 C27.5438902,34.5221653 27.9198989,34.6312485 28.0846176,34.9303677 C28.2490237,35.2294868 28.1402531,35.6054956 27.8408214,35.7699017 L27.8267562,35.7777157 C27.7339262,35.8271 27.6345324,35.850542 27.5363887,35.850542 Z M33.1686504,30.3389756 L33.1737286,30.3424913 L33.0920879,30.2842882 L33.1686504,30.3389756 Z M4.61235819,27.6289844 C4.36824946,27.6289844 4.13695564,27.4833318 4.03912462,27.2432863 L4.03756185,27.2389105 C3.9072246,26.9232256 4.05756564,26.5615947 4.37293787,26.43157 C4.68862263,26.3012328 5.05025371,26.4515738 5.18027834,26.7669461 L5.18465413,26.7778856 C5.31342852,27.0941956 5.16089963,27.4548889 4.8445897,27.5833507 C4.76863779,27.6142941 4.68956033,27.6289844 4.61235819,27.6289844 L4.61235819,27.6289844 Z M35.3006722,26.4425096 C35.2359725,26.4425096 35.1700225,26.4321952 35.1050101,26.4106285 C34.7833867,26.3034208 34.6083536,25.9571052 34.7118106,25.6348566 C34.8127673,25.3101076 35.1572075,25.1266354 35.4825817,25.225404 C35.809206,25.3247979 35.993616,25.6689255 35.8948472,25.9952374 L35.8870333,26.019617 C35.8007669,26.2787286 35.5594712,26.4425096 35.3006722,26.4425096 Z M3.85627742,25.2488459 C3.57653699,25.2488459 3.32305144,25.0578722 3.25522611,24.7740686 L3.25335072,24.765942 C3.17427326,24.4336915 3.37899956,24.1001908 3.71124995,24.0208008 C4.04350041,23.9414108 4.37700112,24.1464497 4.45607858,24.4787 L4.45795397,24.4868266 C4.53734397,24.8187645 4.33230513,25.1522652 4.00036728,25.2316553 C3.95192058,25.2432199 3.90378642,25.2488459 3.85627742,25.2488459 Z M35.8692174,24.0107989 C35.8335857,24.0107989 35.7976414,24.0076733 35.761072,24.0011096 C35.4272586,23.9423484 35.2034663,23.6254134 35.2584767,23.2919127 C35.3103615,22.9559115 35.6238584,22.7239926 35.9601722,22.773377 C36.2977361,22.8233864 36.5312179,23.1362583 36.4815209,23.4741348 L36.4774576,23.4997646 C36.4246351,23.7995089 36.1636482,24.0107989 35.8692174,24.0107989 L35.8692174,24.0107989 Z M3.47464264,22.7796281 C3.1573951,22.7796281 2.88765648,22.5377074 2.85952611,22.2160839 L2.85765079,22.190454 C2.837647,21.8494519 3.09769627,21.557209 3.43869831,21.5368927 C3.77657488,21.5162638 4.06819261,21.7735001 4.09163457,22.111064 C4.11882716,22.4498782 3.86752964,22.7483722 3.52840283,22.7774402 C3.51027443,22.7790031 3.49245858,22.7796281 3.47464264,22.7796281 L3.47464264,22.7796281 Z M36.0586283,21.5206396 C35.7170011,21.5206396 35.4403862,21.2440247 35.4403862,20.9023975 L35.4403862,20.894271 C35.4403862,20.8898952 35.4403862,20.8855193 35.4403862,20.8814561 C35.4403862,20.8761426 35.4403862,20.8705165 35.4403862,20.865203 L35.4403862,20.8570764 C35.4403862,20.5154492 35.7170011,20.2385218 36.0586283,20.2385218 C36.3999429,20.2385218 36.6768704,20.5154492 36.6768704,20.8570764 L36.6768704,20.865203 C36.6768704,20.8695788 36.6768704,20.8739546 36.6765579,20.8780179 C36.6768704,20.8833314 36.6768704,20.8886449 36.6768704,20.894271 L36.6768704,20.9023975 C36.6768704,21.2440247 36.4002555,21.5206396 36.0586283,21.5206396 Z M3.47307987,20.2835303 C3.45526401,20.2835303 3.43713554,20.2825926 3.41900714,20.2810298 C3.07925525,20.2516492 2.82764511,19.9528426 2.85640055,19.6134033 C2.88015505,19.2758394 3.16895977,19.0186031 3.50933673,19.0398572 C3.85033886,19.0598609 4.11038813,19.3524164 4.09038434,19.693106 L4.0881964,19.7187358 C4.06037865,20.0406718 3.79032749,20.2835303 3.47307987,20.2835303 Z M35.864529,18.9939109 C35.5700983,18.9939109 35.3094238,18.7829335 35.2566013,18.4828767 L35.2522255,18.4572468 C35.2028412,18.1193703 35.4363229,17.8052483 35.7741994,17.7555514 C36.1102006,17.7058544 36.4249477,17.938711 36.4752697,18.2756499 C36.5299676,18.608838 36.3064878,18.9251479 35.9726745,18.9842216 C35.9364177,18.9907854 35.9001608,18.9939109 35.864529,18.9939109 Z M35.9682987,18.3599942 L35.8639039,18.3791348 L35.9682987,18.3599942 Z M3.84815092,17.8149376 C3.80064192,17.8149376 3.75219522,17.8093115 3.70406115,17.7977469 C3.37243584,17.7186693 3.16739699,17.3857938 3.2458493,17.0541685 C3.31898819,16.7244185 3.64436232,16.5137535 3.97598762,16.5831417 C4.31011348,16.653155 4.52452907,16.980717 4.4545158,17.3148428 L4.4488897,17.3401602 C4.3813769,17.6239639 4.12789144,17.8149376 3.84815092,17.8149376 Z M35.297234,16.5659509 C35.0371847,16.5659509 34.7943262,16.3996694 34.7077474,16.1399328 L34.7008711,16.1183662 C34.600227,15.7920543 34.7833867,15.4460513 35.1100111,15.3457198 C35.4366355,15.2450757 35.7820134,15.4282354 35.8826575,15.7548598 L35.88297,15.7557975 C35.9908029,16.0799214 35.8148321,16.4265496 35.4907082,16.5343825 C35.4269461,16.5559491 35.3616212,16.5659509 35.297234,16.5659509 L35.297234,16.5659509 Z M4.59766796,15.4310484 C4.52015328,15.4310484 4.44138827,15.4163582 4.36512391,15.3854148 C4.0488139,15.256953 3.89659762,14.8962597 4.02505948,14.5799497 L4.02818503,14.5724483 C4.15664689,14.2561384 4.51702764,14.1036095 4.83365011,14.2320713 C5.14996004,14.3605331 5.30217639,14.7212265 5.17371454,15.0375364 L5.17058898,15.0453504 C5.07307051,15.2853959 4.84177669,15.4310484 4.59766796,15.4310484 Z M34.3595564,14.2501997 C34.1345137,14.2501997 33.9169725,14.1267388 33.8069517,13.9135735 L33.7975749,13.895445 C33.6469214,13.5888244 33.7731954,13.2184418 34.0798159,13.0677882 C34.386124,12.9171347 34.7565066,13.0434086 34.9074727,13.3497167 L34.9077853,13.3509669 C35.06469,13.6541493 34.9443547,14.0248446 34.6408597,14.1814367 C34.5508427,14.228008 34.4545744,14.2501997 34.3595564,14.2501997 Z M5.70475266,13.1912491 C5.59504436,13.1912491 5.48377328,13.1621811 5.38344179,13.1006069 C5.09244914,12.9233859 5.00024423,12.5442516 5.17621501,12.2532589 C5.34655976,11.9622663 5.72006804,11.8609971 6.01449886,12.0279037 C6.31143008,12.1963731 6.4158249,12.5736321 6.247668,12.8705633 C6.24297967,12.8786899 6.23797872,12.8868165 6.23297778,12.894943 C6.11670567,13.0859167 5.91322968,13.1912491 5.70475266,13.1912491 Z M33.0758757,12.1054184 C32.8780258,12.1054184 32.6833013,12.0104004 32.5639037,11.8344296 C32.3654286,11.5565645 32.4313786,11.1730543 32.7095563,10.9745792 C32.9871089,10.776104 33.3753074,10.8433043 33.5737825,11.1211694 L33.58691,11.139923 C33.7785088,11.4224765 33.7050574,11.8069244 33.4225039,11.9988357 C33.3162337,12.0710369 33.1955859,12.1054184 33.0758757,12.1054184 Z M7.14127482,11.1474244 C7.00187337,11.1474244 6.86215946,11.1005406 6.74651251,11.0048974 C6.48396277,10.7867311 6.4477059,10.3969697 6.66587227,10.1341075 L6.67118576,10.1278563 C6.88935205,9.86499391 7.27880087,9.82904966 7.54166315,10.0469034 C7.80452543,10.2650697 7.84078238,10.6548311 7.62261601,10.9176933 L7.61730252,10.9239446 C7.49509185,11.0714726 7.31880845,11.1474244 7.14127482,11.1474244 Z M31.483074,10.181929 C31.3205432,10.181929 31.1583249,10.1184795 31.0370519,9.99189299 C30.7979442,9.74809681 30.8013823,9.35583497 31.0454911,9.11672719 C31.2889746,8.87793195 31.6799862,8.88137012 31.9187815,9.12516631 L31.9290959,9.13548074 C32.1657033,9.38177741 32.1575767,9.77341408 31.91128,10.0097088 C31.7912573,10.1250432 31.6371656,10.181929 31.483074,10.181929 Z M8.87160263,9.34583308 C8.70032018,9.34583308 8.53028797,9.27550727 8.4080773,9.13735606 C8.18178442,8.88168266 8.20585154,8.49098368 8.46152494,8.26469073 L8.46402542,8.26250288 C8.71813604,8.03527231 9.10914764,8.05590125 9.33700328,8.31001188 C9.56454639,8.56380996 9.5445426,8.95357132 9.29105714,9.18173951 L9.28105524,9.19080371 C9.16322036,9.2948859 9.01694265,9.34583308 8.87160263,9.34583308 Z M29.6161577,8.52223952 C29.4892587,8.52223952 29.3617345,8.48348226 29.2514012,8.40284194 L29.2304597,8.3869014 C28.9610336,8.17717415 28.9122744,7.78897564 29.1220016,7.51923702 C29.3314163,7.25012356 29.7186771,7.20136432 29.9881032,7.40984134 C30.2581544,7.61269225 30.3156653,7.99588989 30.1156274,8.2690666 C29.9943544,8.43472294 29.8065063,8.52223952 29.6161577,8.52223952 Z M29.6895142,7.81968447 L29.6121705,7.91890327 L29.6895142,7.81968447 Z M10.8544783,7.82804553 C10.6503771,7.82804553 10.4506518,7.72708888 10.332817,7.54236644 C10.1493447,7.25481197 10.2334231,6.87348972 10.5200399,6.68939229 C10.8019683,6.50310707 11.1823529,6.57780867 11.3723889,6.85817434 C11.5643003,7.14072787 11.4905363,7.52517567 11.2079828,7.71677445 L11.1864162,7.73115221 C11.0835842,7.79678961 10.9685624,7.82804553 10.8544783,7.82804553 Z M27.5173226,7.16510745 C27.4198042,7.16510745 27.3207228,7.14197803 27.2285179,7.09290625 L27.2138276,7.08477975 C26.9147085,6.92037357 26.8056252,6.54436481 26.9700314,6.24524566 C27.1344376,5.94612651 27.5104463,5.83704337 27.8095655,6.00144947 L27.8114408,6.00238717 C28.1099349,6.1652305 28.2227688,6.53998902 28.0614882,6.83942071 C27.9495921,7.04696003 27.7370518,7.16510745 27.5173226,7.16510745 Z M13.0452058,6.63031861 C12.8095362,6.63031861 12.584181,6.49498049 12.4810364,6.26649969 C12.3403848,5.95550333 12.478536,5.58949647 12.7895324,5.44884478 L12.8039101,5.4425936 C13.1164693,5.30538016 13.4809134,5.4482197 13.6181268,5.76109146 C13.7547153,6.07396321 13.6121883,6.4384073 13.2993165,6.57530819 C13.2168009,6.61250276 13.1302219,6.63031861 13.0452058,6.63031861 Z" id="Shape" fill="#A7C7D3"></path>
                <path d="M24.5261309,32.8962323 L15.2178049,23.5879063 C14.6342569,23.0046708 14.6336318,22.060742 15.2162422,21.4784442 C15.4462857,21.2484006 15.7338402,21.1089992 16.0326468,21.0618027 C16.4886707,20.9883513 16.972825,21.1274402 17.3257043,21.4803195 L14.9286877,19.0833029 C14.6373825,18.7919977 14.4911048,18.4100503 14.4911048,18.0290406 C14.4911048,17.9496506 14.497356,17.869948 14.5101709,17.790558 C14.5579924,17.4911262 14.6967687,17.2041969 14.9271249,16.9738407 C15.1549806,16.7459851 15.4375341,16.6078339 15.73259,16.5587621 C16.1342286,16.4918744 16.5574338,16.5897054 16.8946851,16.8525678 L15.9826374,15.94052 C15.6910196,15.6489023 15.5447419,15.2660172 15.5447419,14.884695 C15.5441168,14.8037421 15.5513056,14.7221642 15.5647457,14.6424616 C15.6125672,14.3449052 15.7510309,14.0595387 15.9801369,13.8304327 C16.210493,13.6000766 16.4977349,13.4606751 16.7981043,13.4134787 C17.2538156,13.3400273 17.7382825,13.4794288 18.0908492,13.8319956 L19.1354222,14.8765684 C18.7834805,14.5246268 18.6434539,14.0395349 18.7169054,13.5838235 C18.7641018,13.2847043 18.9028781,12.9977749 19.1338593,12.7671063 C19.7155321,12.1854335 20.6603985,12.1860587 21.2433215,12.7689816 L27.2925925,18.8182527 L27.3094708,18.7941856 C27.6160914,18.487565 27.9774098,18.2697113 28.3627953,18.1396866 C29.313913,17.8190008 30.4088079,18.0381049 31.1677017,18.7973112 L33.9882361,21.6178456 C34.5305263,22.1598232 34.8346464,22.8943374 34.8358967,23.6601074 L34.8374595,25.4248168 C34.8380845,26.2493481 35.1662718,27.0404354 35.7504449,27.6246086 L36.3793141,28.2534777 L29.1851386,35.4476532 L28.3812363,34.6437509 C27.84676,34.1092746 27.1356878,33.7873386 26.3821076,33.7379542 C25.6819749,33.692008 25.0227875,33.3928889 24.5261309,32.8962323 Z" id="Path" fill="#FECBAA"></path>
                <path d="M28.71755,35.9149292 L36.883472,27.7490071 C37.1525855,27.4798937 37.5886056,27.4798937 37.8577191,27.7490071 L40.76577,30.6570581 C41.0348836,30.9261715 41.0348836,31.3625042 40.76577,31.6313051 L32.6001606,39.7972272 C32.3310471,40.0663407 31.8947144,40.0663407 31.6259135,39.7972272 L28.71755,36.8891763 C28.4487491,36.6200627 28.4487491,36.1837302 28.71755,35.9149292 L28.71755,35.9149292 Z" id="Path" fill="#FDD559"></path>
                <path d="M37.1007007,31.4143891 C37.342309,31.6559973 37.7333206,31.6563099 37.9743037,31.4153268 C38.2152868,31.1743436 38.2149743,30.7830195 37.9736786,30.5417237 C37.7320703,30.3001155 37.3410587,30.2998029 37.1000756,30.540786 C36.8590925,30.7820818 36.859405,31.1730934 37.1007007,31.4143891 L37.1007007,31.4143891 Z" id="Path" fill="#FF8812"></path>
                <path d="M29.3754872,20.9008348 L27.2925925,18.8182527 L27.3094708,18.7941856 C27.6160914,18.487565 27.9774098,18.2697113 28.3627953,18.1396866 L30.2497153,20.0266066 C30.491011,20.2679023 30.491011,20.659539 30.2497153,20.9008348 C30.0077945,21.1427556 29.6167829,21.1421304 29.3754872,20.9008348 Z" id="Path" fill="#FFAE85"></path>
                <path d="M16.4414743,32.89717 L25.7498003,23.588844 C26.3333483,23.0052959 26.3339734,22.0616797 25.7516757,21.4793818 C25.5213195,21.2490257 25.2340776,21.1096242 24.9349584,21.0624279 C24.4789345,20.9889764 23.9947802,21.1283779 23.6419009,21.4809447 L26.0389175,19.0842405 C26.3302227,18.7929354 26.4765004,18.410988 26.4765004,18.0296658 C26.4765004,17.9505883 26.4702492,17.8705732 26.4574343,17.7914956 C26.4096128,17.4917514 26.2708365,17.2051346 26.0404803,16.9747784 C25.8126246,16.7469228 25.5300711,16.6087715 25.2350152,16.5596998 C24.8333766,16.4928121 24.4101714,16.5906431 24.0729201,16.8535054 L24.9849678,15.9411451 C25.2765856,15.6498399 25.4228633,15.2669549 25.4228633,14.8856326 C25.4234884,14.8043672 25.4162996,14.7227893 25.4028595,14.6430867 C25.3553505,14.3458428 25.2165743,14.0601637 24.9874683,13.8310579 C24.7571122,13.6010143 24.4698703,13.4616128 24.1695009,13.4144164 C23.7137896,13.340965 23.2293227,13.4800538 22.876756,13.8329332 L21.832183,14.8775061 C22.1841247,14.5252519 22.3241513,14.0404725 22.2506998,13.5844487 C22.2035034,13.285642 22.0647271,12.9987126 21.8337459,12.7677314 C21.2520731,12.1860587 20.3072067,12.1866838 19.7242837,12.7696068 L13.6750127,18.8188778 L13.6581344,18.7951233 C13.3515138,18.4885027 12.9901954,18.2706489 12.6048099,18.1406243 C11.6533796,17.8199385 10.5587973,18.0390425 9.79990346,18.7979364 L6.9793691,21.6187833 C6.43707892,22.1607609 6.13295883,22.8952751 6.13170851,23.6610451 L6.1298332,25.4254419 C6.12952066,26.2502857 5.80133344,27.0413731 5.21716029,27.6255462 L4.58829115,28.2544154 L11.7824666,35.4485909 L12.5863689,34.6446885 C13.1208452,34.1102123 13.8319174,33.7882763 14.5854976,33.7388919 C15.2856303,33.6929457 15.9448177,33.3938266 16.4414743,32.89717 L16.4414743,32.89717 Z" id="Path" fill="#FECBAA"></path>
                <path d="M12.2500552,35.9155543 L4.08413315,27.7499448 C3.81501969,27.4808313 3.37899956,27.4808313 3.1098861,27.7499448 L0.201835158,30.6579958 C-0.0672783861,30.9271092 -0.0672783861,31.3631294 0.201835158,31.6322428 L8.36744464,39.7981648 C8.6365581,40.0672784 9.07289077,40.0672784 9.34200423,39.7981648 L12.2500552,36.8901139 C12.5191687,36.6210004 12.5191687,36.1846678 12.2500552,35.9155543 Z" id="Path" fill="#FF84A7"></path>
                <path d="M9.46296467,37.0107618 C9.70457292,36.7691535 9.70488546,36.3781419 9.46390236,36.1371588 C9.22291919,35.8958631 8.83159505,35.8961757 8.59029934,36.1377839 C8.34869108,36.3790796 8.34837855,36.7704038 8.58936164,37.011387 C8.83065735,37.2523701 9.22166895,37.2520575 9.46296467,37.0107618 L9.46296467,37.0107618 Z" id="Path" fill="#EF6085"></path>
                <path d="M11.5924306,20.9017724 L13.6750127,18.8188778 L13.6581344,18.7951233 C13.3515138,18.4885027 12.9901954,18.2706489 12.6048099,18.1406243 L10.7178899,20.0272317 C10.4765942,20.2685275 10.4765942,20.6604767 10.7178899,20.9017724 C10.9598107,21.1436933 11.3508223,21.1430681 11.5924306,20.9017724 Z" id="Path" fill="#FFAE85"></path>
                <path d="M26.437118,10.5888811 L26.437118,23.7529376 C26.437118,24.5780939 25.7704291,25.2457204 24.9468357,25.2457204 C24.6211489,25.2457204 24.3195293,25.141013 24.0744829,24.9628542 C23.7003495,24.6924905 23.4562408,24.2514696 23.4562408,23.7529376 L23.4562408,27.1426423 C23.4562408,27.5545953 23.2896467,27.9281035 23.0202206,28.1975296 C22.9642725,28.2537903 22.9030109,28.3056751 22.8379986,28.352559 C22.592327,28.5307177 22.2916451,28.6354251 21.9659584,28.6354251 C21.6437099,28.6354251 21.345841,28.5332182 21.1026698,28.3594353 C20.7713571,28.122828 20.5413135,27.7543206 20.4888035,27.3295527 L20.4888035,28.6197971 C20.4888035,29.0320627 20.3212718,29.4061961 20.0518457,29.6756221 C19.99496,29.7334456 19.9321356,29.7862681 19.8664981,29.833152 C19.6223894,30.0097479 19.3223326,30.1135176 18.9982087,30.1135176 C18.6728345,30.1135176 18.3709023,30.0088102 18.1252308,29.8300264 C17.7510974,29.5596626 17.5069886,29.1186416 17.5069886,28.6197971 L17.5069886,27.1426423 C17.5069886,27.6405491 17.2631924,28.0821953 16.8887465,28.352559 C16.6440127,28.5307177 16.3430181,28.6354251 16.0167063,28.6354251 C15.1937379,28.6354251 14.5261114,27.9668609 14.5261114,27.1426423 L14.5261114,18.587584 L14.497356,18.5925849 C14.0638363,18.5925849 13.6540712,18.4910032 13.2896272,18.3106565 C12.3903942,17.8646345 11.7712145,16.9357085 11.7712145,15.8623802 L11.7712145,11.8731869 C11.7712145,11.1067917 12.0753345,10.3722775 12.616062,9.82967474 L13.8625482,8.58100074 C14.4454711,7.99714004 14.7727206,7.20605273 14.7727206,6.3799587 L14.7727206,5.49041522 L24.9465231,5.49041522 L24.9465231,6.62719306 C24.9465231,7.3829612 25.2218878,8.11341215 25.7197946,8.68133222 C26.1823822,9.20893218 26.437118,9.88656056 26.437118,10.5888811 L26.437118,10.5888811 Z" id="Path" fill="#FEDFC5"></path>
                <path d="M25.7516757,21.4793818 C25.5213195,21.2490257 25.2340776,21.1099369 24.9349584,21.0624279 C24.4789345,20.9889764 23.9947802,21.1283779 23.6419009,21.4812572 L26.0389175,19.0842405 C26.3302227,18.7929354 26.476813,18.410988 26.476813,18.0299783 C26.476813,17.9505883 26.4702492,17.8705732 26.4574343,17.7914956 C26.4096128,17.4917514 26.271149,17.2051346 26.0407929,16.9747784 C25.8129372,16.7469228 25.5300711,16.6087715 25.2353277,16.5596998 C24.8336892,16.4928121 24.410484,16.5906431 24.0729201,16.8535054 L24.9852804,15.9411451 C25.2765856,15.6498399 25.4228633,15.2669549 25.4228633,14.8856326 C25.4234884,14.8046798 25.4166122,14.7231018 25.4031721,14.6430867 C25.3553505,14.3458428 25.2165743,14.0601637 24.9874683,13.8310579 C24.7574247,13.6010143 24.4698703,13.4616128 24.1698134,13.4144164 C23.7141021,13.340965 23.2293227,13.4803664 22.876756,13.8329332 L21.832183,14.8775061 C22.1841247,14.5252519 22.3241513,14.0404725 22.2506998,13.5844487 C22.2035034,13.285642 22.0647271,12.9987126 21.8340584,12.7677314 C21.2520731,12.1860587 20.3072067,12.1866838 19.7242837,12.7696068 L13.6750127,18.8188778 L13.6581344,18.7951233 C13.3515138,18.4885027 12.9901954,18.2706489 12.6048099,18.1406243 C12.1484734,17.9868452 11.6593183,17.9584023 11.1895418,18.0531077 C11.5677384,18.6247785 12.0965887,19.0989308 12.7410857,19.4186789 C12.9198696,19.5071332 13.1030292,19.5815223 13.2899397,19.6415336 L13.2899397,27.1426423 C13.2899397,28.6476149 14.5132964,29.8719093 16.0167063,29.8719093 C16.1976781,29.8719093 16.3758368,29.854406 16.5493072,29.8200245 C16.7434064,30.2166622 17.0328363,30.5657908 17.3975929,30.8292782 C17.6238857,30.9943095 17.8708076,31.1205834 18.1305443,31.2081 L25.7498003,23.588844 C26.3333483,23.0052959 26.3339734,22.0616797 25.7516757,21.4793818 L25.7516757,21.4793818 Z" id="Path" fill="#FFAE85"></path>
                <path d="M27.6729771,23.7529376 L27.6729771,18.4881902 C27.5451404,18.5778947 27.4232423,18.6801015 27.3088456,18.7941856 L27.2919675,18.8182527 L21.2426964,12.7689816 C20.6597735,12.1860587 19.7149069,12.1854335 19.1332342,12.7671063 C18.902253,12.9977749 18.7634767,13.2847043 18.7162802,13.5838235 C18.6428289,14.0395349 18.7828554,14.5246268 19.134797,14.8765684 L18.0902242,13.8319956 C17.7376574,13.4794288 17.2531905,13.3400273 16.7974793,13.4134787 C16.4971098,13.4606751 16.2098679,13.6000766 15.9795117,13.8304327 C15.7504058,14.0595387 15.6116296,14.3449052 15.563808,14.6424616 C15.5506805,14.7221642 15.5434916,14.8037421 15.5441168,14.884695 C15.5441168,15.2660172 15.6903945,15.6489023 15.9820122,15.94052 L16.89406,16.8525678 C16.5564961,16.5897054 16.1336034,16.4918744 15.7319648,16.5587621 C15.4369089,16.6078339 15.1543554,16.7459851 14.9264998,16.9738407 C14.6961436,17.2041969 14.5573673,17.4911262 14.5095458,17.790558 C14.4967308,17.869948 14.4901671,17.9496506 14.490469,18.0290406 C14.4901671,18.4103629 14.6367573,18.7919977 14.9280625,19.0833029 L17.3250792,21.4803195 C16.9725124,21.1277527 16.4880456,20.9883513 16.0323343,21.0618027 C15.7332151,21.1089992 15.4456606,21.2484006 15.215617,21.4784442 C14.6333192,22.0610546 14.6339443,23.0046708 15.2171799,23.5882189 L21.4530487,29.8237752 C21.6205804,29.8556562 21.7918629,29.8719093 21.9653333,29.8719093 C22.5432552,29.8719093 23.0958599,29.6928129 23.5609481,29.3555615 C23.679408,29.2699203 23.7916168,29.1745897 23.8941362,29.0720703 C24.4089213,28.5572853 24.6924124,27.8721555 24.6924124,27.1426423 L24.6924124,26.4706399 C24.7761783,26.4784539 24.8611944,26.4822047 24.9462105,26.4822047 C26.4496204,26.4822047 27.6729771,25.2579101 27.6729771,23.7529376 L27.6729771,23.7529376 Z" id="Path" fill="#FFAE85"></path>
                <path d="M26.437118,10.5888811 L26.437118,23.7529376 C26.437118,24.5780939 25.7704291,25.2457204 24.9468357,25.2457204 C24.9246439,25.2457204 24.9005769,25.2457204 24.8768224,25.2441576 C24.5789535,25.2300924 24.3029637,25.1288232 24.0763583,24.9637919 C24.0754206,24.9637919 24.0754206,24.9628542 24.0744829,24.9628542 C23.7003495,24.6924905 23.4562408,24.2514696 23.4562408,23.7529376 L23.4562408,27.1426423 C23.4562408,27.5545953 23.2896467,27.9281035 23.0202206,28.1975296 C22.9642725,28.2537903 22.9030109,28.3056751 22.8379986,28.352559 C22.592327,28.5307177 22.2916451,28.6354251 21.9659584,28.6354251 C21.6437099,28.6354251 21.345841,28.5332182 21.1026698,28.3594353 C20.7713571,28.122828 20.5413135,27.7543206 20.4888035,27.3295527 L20.4888035,28.6197971 C20.4888035,29.0320627 20.3212718,29.4061961 20.0518457,29.6756221 C19.99496,29.7334456 19.9321356,29.7862681 19.8664981,29.833152 C19.6223894,30.0097479 19.3223326,30.1135176 18.9982087,30.1135176 C18.6728345,30.1135176 18.3709023,30.0088102 18.1252308,29.8300264 C17.7510974,29.5596626 17.5069886,29.1186416 17.5069886,28.6197971 L17.5069886,27.1426423 C17.5069886,27.6405491 17.2631924,28.0821953 16.8887465,28.352559 C16.6440127,28.5307177 16.3430181,28.6354251 16.0167063,28.6354251 C15.1937379,28.6354251 14.5261114,27.9668609 14.5261114,27.1426423 L14.5261114,18.587584 L14.497356,18.5925849 C14.0638363,18.5925849 13.6540712,18.4910032 13.2896272,18.3106565 C12.3903942,17.8646345 11.7712145,16.9357085 11.7712145,15.8623802 L11.7712145,11.8731869 C11.7712145,11.1067917 12.0753345,10.3722775 12.616062,9.82967474 L13.8625482,8.58100074 C14.2229289,8.21999482 14.4857912,7.77959883 14.6333192,7.29982049 C14.7258367,7.00320182 14.7727206,6.6906426 14.7727206,6.3799587 L14.7727206,5.49041522 L24.9465231,5.49041522 L24.9465231,6.62719306 C24.9465231,6.88192876 24.9740283,7.15072977 25.0446667,7.39608873 C25.1634392,7.86867826 25.3944204,8.30969926 25.7197946,8.68133222 C26.178319,9.20486885 26.437118,9.89156151 26.437118,10.5888811 L26.437118,10.5888811 Z" id="Path" fill="#FEDFC5"></path>
                <path d="M26.437118,10.5888811 L26.437118,23.7529376 C26.437118,24.5780939 25.7704291,25.2457204 24.9468357,25.2457204 C24.9246439,25.2457204 24.9005769,25.2457204 24.8768224,25.2441576 C24.5789535,25.2300924 24.3029637,25.1288232 24.0763583,24.9637919 L24.1016755,12.2788888 C24.1016755,12.2023118 24.0844848,12.0810388 24.0522911,11.9269471 C23.4834334,9.15610969 21.1448654,7.29982049 18.316517,7.29982049 L14.6333192,7.29982049 C14.7258367,7.0028892 14.7727206,6.6906426 14.7727206,6.3799587 L14.7727206,5.49041522 L24.9465231,5.49041522 L24.9465231,6.62719306 C24.9465231,6.88192876 24.9740283,7.15072977 25.0446667,7.39608873 C25.1634392,7.86867826 25.3944204,8.30969926 25.7197946,8.68133222 C26.178319,9.20486885 26.437118,9.89156151 26.437118,10.5888811 L26.437118,10.5888811 Z" id="Path" fill="#FECBAA"></path>
                <path d="M25.6078983,5.49072775 L14.0594605,5.49072775 C13.6790759,5.49072775 13.3705799,5.18223179 13.3705799,4.80184724 L13.3705799,0.68888051 C13.3705799,0.308495965 13.6790759,0 14.0594605,0 L25.6078983,0 C25.988283,0 26.2967789,0.308495965 26.2967789,0.68888051 L26.2967789,4.80184724 C26.2967789,5.18223179 25.988283,5.49072775 25.6078983,5.49072775 Z" id="Path" fill="#83D9FF"></path>
                <path d="M16.6343233,2.74552015 C16.6343233,2.40389294 16.358021,2.12727806 16.0170188,2.12727806 C15.6760167,2.12727806 15.3997144,2.40389294 15.3997144,2.74552015 C15.3997144,3.08683481 15.6760167,3.36376223 16.0170188,3.36376223 C16.358021,3.36376223 16.6343233,3.08683481 16.6343233,2.74552015 Z" id="Path" fill="#5186FF"></path>
                <g id="Group" transform="translate(13.289940, 15.023784)" fill="#FECBAA">
                    <path d="M10.7848557,1.84003604 L10.7848557,9.93907043 C10.4104098,9.66870673 10.1663011,9.22768573 10.1663011,8.72884115 L10.1663011,12.1185459 C10.1663011,12.5308115 10.0000195,12.9043197 9.73028095,13.1737458 C9.67433283,13.2300065 9.61338376,13.2818913 9.54805891,13.3287752 L9.54805891,1.84003604 C9.54805891,1.49872146 9.82529895,1.22179395 10.1663011,1.22179395 C10.5076157,1.22179395 10.7848557,1.49872146 10.7848557,1.84003604 L10.7848557,1.84003604 Z" id="Path"></path>
                    <path d="M7.81304268,1.84003604 L7.81304268,13.3353389 C7.48141738,13.0987316 7.25168633,12.7302243 7.19886385,12.3057689 L7.19886385,13.5960133 C7.19886385,14.0079663 7.03164465,14.3824122 6.76190602,14.6518383 C6.70502029,14.7096617 6.64250844,14.7621717 6.57655843,14.8093682 L6.57655843,1.84003604 C6.57655843,1.49872146 6.85348593,1.22179395 7.1948006,1.22179395 C7.53611526,1.22179395 7.81304268,1.49872146 7.81304268,1.84003604 L7.81304268,1.84003604 Z" id="Path"></path>
                    <path d="M4.8352911,1.84003604 L4.8352911,14.80593 C4.46115766,14.5355663 4.21704893,14.0945452 4.21704893,13.5960133 L4.21704893,12.1185459 C4.21704893,12.6164527 3.97325274,13.0584115 3.59880676,13.3287752 L3.59880676,1.84003604 C3.59880676,1.49872146 3.87604681,1.22179395 4.21704893,1.22179395 C4.55930129,1.22179395 4.8352911,1.49872146 4.8352911,1.84003604 L4.8352911,1.84003604 Z" id="Path"></path>
                    <path d="M1.23648426,0.618242088 L1.23648426,3.56380013 L1.20741627,3.56848854 C0.773896617,3.56848854 0.364131466,3.46721936 0,3.28687271 L0,0.618242088 C0,0.276927425 0.276927505,2.2741676e-15 0.618242088,2.2741676e-15 C0.960181909,2.2741676e-15 1.23648426,0.276927425 1.23648426,0.618242088 Z" id="Path"></path>
                </g>
            </g>
        </g>
    </g>
</svg>