<?xml version="1.0" encoding="UTF-8"?>
<svg width="45px" height="45px" viewBox="0 0 45 45" version="1.1" xmlns="http://www.w3.org/2000/svg" xmlns:xlink="http://www.w3.org/1999/xlink">
    <title>007-interview</title>
    <g id="Page-1" stroke="none" stroke-width="1" fill="none" fill-rule="evenodd">
        <g id="02_dashboard" transform="translate(-279.000000, -424.000000)" fill-rule="nonzero">
            <g id="007-interview" transform="translate(279.000000, 424.000000)">
                <path d="M22.1757715,0.0730371094 L11.559375,0.0730371094 C10.783125,0.0730371094 10.1538281,0.702333984 10.1538281,1.47858398 L10.1538281,7.57485352 C10.1538281,8.35110352 10.783125,8.98040039 11.559375,8.98040039 L11.6281055,8.98040039 C11.9218359,8.98040039 12.1600195,9.21849609 12.1600195,9.51231445 L12.1600195,11.291748 C12.1600195,11.5707129 12.4843359,11.724082 12.7000195,11.5471582 L15.681709,9.10107422 C15.7768066,9.02302734 15.8960742,8.98040039 16.0190332,8.98040039 L22.1757715,8.98040039 C22.9520215,8.98040039 23.5813184,8.35110352 23.5813184,7.57485352 L23.5813184,1.47858398 C23.5813184,0.702333984 22.9520215,0.0730371094 22.1757715,0.0730371094 Z" id="Path" fill="#F7D4AD"></path>
                <path d="M22.405166,4.57022461 L33.0215625,4.57022461 C33.7978125,4.57022461 34.4271094,5.19952148 34.4271094,5.97577148 L34.4271094,12.3135645 C34.4271094,13.0898145 33.7978125,13.7191113 33.0215625,13.7191113 L32.952832,13.7191113 C32.6591016,13.7191113 32.420918,13.957207 32.420918,14.2510254 L32.420918,16.030459 C32.420918,16.3094238 32.0966016,16.462793 31.880918,16.2858691 L28.8992285,13.8397852 C28.8041309,13.7617383 28.6848633,13.7191113 28.5619043,13.7191113 L22.405166,13.7191113 C21.628916,13.7191113 20.9996191,13.0898145 20.9996191,12.3135645 L20.9996191,5.97577148 C20.9996191,5.19952148 21.628916,4.57022461 22.405166,4.57022461 L22.405166,4.57022461 Z" id="Path" fill="#ECBD83"></path>
                <g id="Group" transform="translate(12.128906, 2.197266)" fill="#E2A876">
                    <path d="M8.2190918,0.0326074219 L0.732480469,0.0326074219 C0.357451172,0.0326074219 0.0534375,0.336621094 0.0534375,0.711650391 C0.0534375,1.08667969 0.357451172,1.39069336 0.732480469,1.39069336 L8.2190918,1.39069336 C8.59412109,1.39069336 8.89813477,1.08667969 8.89813477,0.711650391 C8.89813477,0.336621094 8.59412109,0.0326074219 8.2190918,0.0326074219 L8.2190918,0.0326074219 Z" id="Path"></path>
                    <path d="M5.62262695,2.97158203 L0.732480469,2.97158203 C0.357451172,2.97158203 0.0534375,3.2755957 0.0534375,3.650625 C0.0534375,4.0256543 0.357451172,4.32966797 0.732480469,4.32966797 L5.62262695,4.32966797 C5.99765625,4.32966797 6.30166992,4.0256543 6.30166992,3.650625 C6.30166992,3.2755957 5.99765625,2.97158203 5.62262695,2.97158203 Z" id="Path"></path>
                    <path d="M19.1954883,4.74117188 L11.7087891,4.74117188 C11.3337598,4.74117188 11.0297461,5.04518555 11.0297461,5.42021484 C11.0297461,5.79524414 11.3337598,6.09925781 11.7087891,6.09925781 L19.1954883,6.09925781 C19.5705176,6.09925781 19.8745312,5.79524414 19.8745312,5.42021484 C19.8745312,5.04518555 19.5705176,4.74117188 19.1954883,4.74117188 Z" id="Path"></path>
                    <path d="M16.5990234,7.68014648 L11.7087891,7.68014648 C11.3337598,7.68014648 11.0297461,7.98416016 11.0297461,8.35918945 C11.0297461,8.73421875 11.3337598,9.03823242 11.7087891,9.03823242 L16.5989355,9.03823242 C16.9739648,9.03823242 17.2779785,8.73421875 17.2779785,8.35918945 C17.2779785,7.98416016 16.9740527,7.68014648 16.5990234,7.68014648 Z" id="Path"></path>
                </g>
                <path d="M34.9199121,27.2870508 L9.78855469,27.2870508 C8.84592773,27.2870508 8.08180664,26.5229297 8.08180664,25.5803027 L8.08180664,24.7691602 L36.6266602,24.7691602 L36.6266602,25.5803027 C36.6266602,26.5228418 35.8625391,27.2870508 34.9199121,27.2870508 Z" id="Path" fill="#7C5757"></path>
                <g id="Group" transform="translate(0.000000, 27.246094)" fill="#DAD8DB">
                    <path d="M8.92766602,7.08723633 C8.84926758,6.72055664 8.48856445,6.48667969 8.1215332,6.5653418 C7.75485352,6.64382813 7.52115234,7.00470703 7.59963867,7.37147461 L9.69046875,17.1438574 C9.75867187,17.4627246 10.0403613,17.680957 10.3538672,17.680957 C10.4008887,17.680957 10.4487012,17.6760352 10.4966016,17.665752 C10.8632812,17.5872656 11.0969824,17.2263867 11.0184961,16.8596191 L8.92766602,7.08723633 Z" id="Path"></path>
                    <path d="M2.9165625,6.56525391 C2.54988281,6.48667969 2.18891602,6.72055664 2.11042969,7.08714844 L0.0195996094,16.8596191 C-0.0588867188,17.2263867 0.174814453,17.5872656 0.541494141,17.665752 C0.589394531,17.6760352 0.637207031,17.680957 0.684228516,17.680957 C0.997646484,17.680957 1.27933594,17.4626367 1.34762695,17.1438574 L3.43845703,7.37138672 C3.51694336,7.00461914 3.28324219,6.64374023 2.9165625,6.56525391 Z" id="Path"></path>
                    <path d="M26.975918,0.0406933594 L17.7325488,0.0406933594 C18.105293,1.14547852 18.8623828,2.07219727 19.8444727,2.66282227 C20.4887109,3.05015625 20.8957324,3.7340332 20.8957324,4.48576172 L20.8957324,17.0017383 L23.694873,17.0017383 L23.694873,4.56064453 C23.694873,3.79089844 24.1192969,3.09348633 24.786123,2.70905273 C25.8062695,2.12106445 26.5933301,1.17439453 26.975918,0.0406933594 L26.975918,0.0406933594 Z" id="Path"></path>
                </g>
                <path d="M25.4493457,43.5687012 L19.2590332,43.5687012 C18.8840039,43.5687012 18.5799902,43.8727148 18.5799902,44.2477441 C18.5799902,44.6227734 18.8840039,44.9267871 19.2590332,44.9267871 L25.4493457,44.9267871 C25.824375,44.9267871 26.1283887,44.6227734 26.1283887,44.2477441 C26.1283887,43.8727148 25.824375,43.5687012 25.4493457,43.5687012 Z" id="Path" fill="#C7C5C9"></path>
                <path d="M10.0256836,34.4753613 L1.0659375,34.4753613 C0.478476562,34.4753613 0.00219726562,33.999082 0.00219726562,33.4116211 L0.00219726562,31.9573828 L11.0894238,31.9573828 L11.0894238,33.4116211 C11.0894238,33.9991699 10.6131445,34.4753613 10.0256836,34.4753613 Z" id="Path" fill="#FFC269"></path>
                <path d="M1.25560547,27.2870508 L1.25560547,19.5931055 C1.25560547,18.350332 1.74902344,17.1584473 2.62740234,16.2793652 C3.89118164,15.0146191 6.03694336,15.3200391 6.80352539,16.935293 L8.61767578,20.0908301 L8.25310547,27.2870508" id="Path" fill="#B2E59F"></path>
                <path d="M14.3595703,44.2477441 L12.9157031,44.2477441 C12.6429785,44.2477441 12.4123535,44.046123 12.3758789,43.7758594 L10.7825977,31.954834 L4.00095703,31.954834 C2.48475586,31.954834 1.25560547,30.7256836 1.25560547,29.2094824 L1.25560547,27.2869629 L11.6374219,27.2869629 C13.4415527,27.2869629 14.9041406,28.7495508 14.9041406,30.5536816 L14.9041406,43.702998 C14.9041406,44.0039355 14.660332,44.2477441 14.3595703,44.2477441 L14.3595703,44.2477441 Z" id="Path" fill="#5D5260"></path>
                <path d="M4.93664063,21.3922266 L8.08171875,24.7690723 L15.8123145,24.7690723 C15.8123145,23.3644043 14.7965625,22.1658398 13.4109668,21.9353906 L9.28344727,21.2489648 L6.8034375,16.9353809 C5.81554688,16.5199219 4.73264648,16.4983008 4.13472656,17.0310059 C3.26513672,17.8056738 3.27779297,19.8807715 4.93664062,21.3922266 L4.93664063,21.3922266 Z" id="Path" fill="#95D5A4"></path>
                <path d="M6.24770508,11.8742871 L6.24770508,13.1128418 C6.24770508,14.4456152 5.16849609,15.5248242 3.83660156,15.5248242 C3.02985352,15.5248242 2.31644531,15.1291406 1.87822266,14.5216406 C1.77319336,14.3767969 1.68442383,14.219209 1.61384766,14.0517773 C1.49255859,13.7638477 1.42461914,13.4460352 1.42461914,13.1128418 L1.42461914,11.8742871 C1.42461914,10.5423926 2.50479492,9.46230469 3.83660156,9.46230469 C4.50210937,9.46230469 5.10503906,9.73212891 5.54150391,10.1685059 C5.79137695,10.4183789 5.98693359,10.7235352 6.10734375,11.0639355 C6.19883789,11.3165332 6.24770508,11.5899609 6.24770508,11.8742871 L6.24770508,11.8742871 Z" id="Path" fill="#F7D4AD"></path>
                <path d="M6.10734375,11.0639355 L6.05390625,11.0540039 L3.85101562,12.0047168 C3.73060547,12.0563086 3.63823242,12.1595801 3.60114258,12.2863184 L3.51149414,12.58875 C3.51149414,12.58875 3.33852539,14.0219824 2.07008789,14.4647754 C2.00399414,14.4874512 1.93974609,14.5064355 1.87813477,14.5218164 C1.77310547,14.3769727 1.68433594,14.2193848 1.61375977,14.0519531 C1.4924707,13.7640234 1.42453125,13.4462109 1.42453125,13.1130176 L1.42453125,11.8744629 C1.42453125,10.5425684 2.50470703,9.46248047 3.83651367,9.46248047 C4.50202148,9.46248047 5.10495117,9.73230469 5.54141602,10.1686816 C5.79137695,10.4183789 5.98693359,10.7234473 6.10734375,11.0639355 L6.10734375,11.0639355 Z" id="Path" fill="#6E4848"></path>
                <circle id="Oval" fill="#633C3E" cx="42.4266504" cy="9.54421875" r="1.36450195"></circle>
                <path d="M44.9825977,44.1057129 L42.8917676,34.3333301 C42.8132813,33.9666504 42.4524902,33.7327734 42.0856348,33.8114355 C41.7189551,33.8899219 41.4852539,34.2508008 41.5637402,34.6175684 L43.6545703,44.3899512 C43.7227734,44.7088184 44.0044629,44.9270508 44.3179687,44.9270508 C44.3649902,44.9270508 44.4128027,44.9221289 44.4607031,44.9118457 C44.8273828,44.8333594 45.061084,44.4724805 44.9825977,44.1057129 Z" id="Path" fill="#DAD8DB"></path>
                <path d="M36.8806641,33.8113477 C36.5137207,33.7327734 36.1531055,33.9666504 36.0745312,34.3332422 L33.9837891,44.1057129 C33.9053027,44.4724805 34.1390039,44.8333594 34.5056836,44.9118457 C34.553584,44.9221289 34.6013965,44.9270508 34.648418,44.9270508 C34.9618359,44.9270508 35.2435254,44.7087305 35.3118164,44.3899512 L37.4026465,34.6175684 C37.4811328,34.2507129 37.2474316,33.889834 36.8806641,33.8113477 L36.8806641,33.8113477 Z" id="Path" fill="#DAD8DB"></path>
                <path d="M34.9765137,34.4753613 L43.9362598,34.4753613 C44.5237207,34.4753613 45,33.999082 45,33.4116211 L45,31.9573828 L33.9127734,31.9573828 L33.9127734,33.4116211 C33.9127734,33.9991699 34.3890527,34.4753613 34.9765137,34.4753613 Z" id="Path" fill="#FFC269"></path>
                <path d="M0,31.9574707 L0,33.0390527 L9.92698242,33.0390527 L9.92698242,34.4754492 L10.0234863,34.4754492 C10.6109473,34.4754492 11.0872266,33.9991699 11.0872266,33.411709 L11.0872266,31.9574707 L0,31.9574707 Z" id="Path" fill="#FF8B59"></path>
                <path d="M33.9105762,31.9574707 L33.9105762,33.0390527 L43.8375586,33.0390527 L43.8375586,34.4754492 L43.9340625,34.4754492 C44.5215234,34.4754492 44.9978027,33.9991699 44.9978027,33.411709 L44.9978027,31.9574707 L33.9105762,31.9574707 Z" id="Path" fill="#FF8B59"></path>
                <path d="M43.7465918,27.2870508 L43.7465918,19.5931055 C43.7465918,18.350332 43.2531738,17.1584473 42.3747949,16.2793652 C41.1110156,15.0146191 38.9652539,15.3200391 38.1986719,16.935293 L36.3845215,20.0908301 L36.7490918,27.2870508" id="Path" fill="#B8B6FF"></path>
                <path d="M30.642627,44.2477441 L32.0864941,44.2477441 C32.3592187,44.2477441 32.5898437,44.046123 32.6263184,43.7758594 L34.2195996,31.954834 L41.0012402,31.954834 C42.5174414,31.954834 43.7465918,30.7256836 43.7465918,29.2094824 L43.7465918,27.2869629 L33.3646875,27.2869629 C31.5605566,27.2869629 30.0979687,28.7495508 30.0979687,30.5536816 L30.0979687,43.702998 C30.0979687,44.0039355 30.3418652,44.2477441 30.642627,44.2477441 L30.642627,44.2477441 Z" id="Path" fill="#5D5260"></path>
                <path d="M40.0655566,21.3922266 L36.9204785,24.7690723 L29.1898828,24.7690723 C29.1898828,23.3644043 30.2056348,22.1658398 31.5912305,21.9353906 L35.71875,21.2489648 L38.3683887,16.6402441 C38.6286328,16.5710742 39.7981055,16.2872754 40.5347168,16.903125 C41.452998,17.6709375 41.5216406,19.6892578 40.0655566,21.3922266 L40.0655566,21.3922266 Z" id="Path" fill="#A09EEF"></path>
                <path d="M43.0217578,11.8471289 L43.0217578,13.0856836 C43.0217578,13.5501855 42.8904492,13.9838379 42.663252,14.3514844 C42.2395312,15.0387012 41.4790137,15.4977539 40.6106543,15.4977539 C39.2787598,15.4977539 38.1986719,14.4175781 38.1986719,13.0857715 L38.1986719,11.8472168 C38.1986719,11.6390039 38.2249512,11.4370313 38.2746973,11.2441992 L38.2746973,11.2433203 C38.3842969,10.8195996 38.605166,10.4411426 38.904873,10.1414355 C39.3422168,9.70505859 39.9451465,9.43523438 40.6106543,9.43523438 C41.9424609,9.43505859 43.0217578,10.5143555 43.0217578,11.8471289 L43.0217578,11.8471289 Z" id="Path" fill="#F7D4AD"></path>
                <path d="M43.0217578,11.8471289 L43.0217578,13.0856836 C43.0217578,13.5501855 42.8904492,13.9838379 42.663252,14.3514844 C42.4441406,14.3070996 42.2096484,14.2238672 41.9796387,14.0807812 C41.1249023,13.5501855 40.3788867,12.5886621 40.3788867,12.5886621 L40.2883594,12.2862305 C40.2512695,12.1594922 40.1597754,12.0562207 40.0384863,12.0046289 L38.2747852,11.2441113 L38.2747852,11.2432324 C38.3843848,10.8195117 38.6052539,10.4410547 38.9049609,10.1413477 C39.3423047,9.7049707 39.9452344,9.43514648 40.6107422,9.43514648 C41.9424609,9.43505859 43.0217578,10.5143555 43.0217578,11.8471289 L43.0217578,11.8471289 Z" id="Path" fill="#6E4848"></path>
            </g>
        </g>
    </g>
</svg>