<?xml version="1.0" encoding="UTF-8"?>
<svg width="40px" height="40px" viewBox="0 0 40 40" version="1.1" xmlns="http://www.w3.org/2000/svg" xmlns:xlink="http://www.w3.org/1999/xlink">
    <title>portfolio</title>
    <g id="Page-1" stroke="none" stroke-width="1" fill="none" fill-rule="evenodd">
        <g id="02_dashboard" transform="translate(-281.000000, -291.000000)" fill-rule="nonzero">
            <g id="portfolio" transform="translate(281.000000, 291.000000)">
                <path d="M17.7415205,4.33267717 L15.4952827,1.70062992 C14.6098246,0.662992126 13.3207018,0.0663779528 11.9642885,0.0663779528 L2.95812865,0.0663779528 C1.32436647,0.0663779528 0,1.40385827 0,3.05362205 L0,5.96685039 L0,31.8159055 L0,32.676378 C0,34.3261417 1.32436647,35.6635433 2.95805068,35.6635433 L36.9640546,35.6635433 C38.5977388,35.6635433 39.9221053,34.3261417 39.9221053,32.676378 L39.9221053,8.95409449 C39.9221053,7.30425197 38.5977388,5.96685039 36.9639766,5.96685039 L21.2725146,5.96685039 C19.9161014,5.96685039 18.6269786,5.37023622 17.7415205,4.33267717 Z" id="Path" fill="#FEE07D"></path>
                <path d="M36.9638986,5.96685039 L33.0323587,5.96685039 C33.0323587,19.5103937 22.1601559,30.489685 8.74853801,30.489685 L0,30.489685 L0,31.8159055 L0,32.676378 C0,34.3261417 1.32436647,35.6635433 2.95805068,35.6635433 L36.9640546,35.6635433 C38.5977388,35.6635433 39.9221053,34.3261417 39.9221053,32.6764567 L39.9221053,8.95409449 C39.9221053,7.30433071 38.5976608,5.96685039 36.9638986,5.96685039 Z" id="Path" fill="#FFC269"></path>
                <g id="Group" transform="translate(3.976608, 12.677165)">
                    <path d="M18.8995712,0.014015748 L13.0693177,0.014015748 C10.9696686,0.014015748 9.26760234,1.73283465 9.26760234,3.85314961 L9.26760234,6.34992126 L11.7911111,6.34992126 L11.7911111,4.26031496 C11.7911111,3.22716535 12.6204288,2.38968504 13.6435088,2.38968504 L18.3254581,2.38968504 C19.348538,2.38968504 20.1778558,3.22716535 20.1778558,4.26031496 L20.1778558,6.34992126 L22.7013645,6.34992126 L22.7013645,3.85314961 C22.7012086,1.73283465 20.9991423,0.014015748 18.8995712,0.014015748 Z" id="Path" fill="#633C3E"></path>
                    <path d="M31.9293567,7.16952756 L31.9293567,25.6222047 C31.9293567,26.5248031 31.2049123,27.256378 30.3111111,27.256378 L1.65762183,27.256378 C0.763820663,27.256378 0.0393762183,26.5248031 0.0393762183,25.6222047 L0.0393762183,7.16952756 C0.0393762183,6.26692913 0.763820663,5.53535433 1.65762183,5.53535433 L30.3111111,5.53535433 C31.2049123,5.53535433 31.9293567,6.26692913 31.9293567,7.16952756 Z" id="Path" fill="#FF8B59"></path>
                    <g transform="translate(0.000000, 5.511811)" fill="#7C5757" id="Path">
                        <path d="M29.3416764,8.60755906 L17.1407407,11.7574803 C16.3820663,11.9533858 15.5867446,11.9533858 14.8279922,11.7574803 L2.62705653,8.60755906 C1.10448343,8.21448819 0.0393762183,6.82929134 0.0393762183,5.2423622 L0.0393762183,1.65740157 C0.0393762183,0.75488189 0.763898635,0.0232283465 1.65762183,0.0232283465 L30.3110331,0.0232283465 C31.2047563,0.0232283465 31.9292788,0.75488189 31.9292788,1.65740157 L31.9292788,5.2423622 C31.9292788,6.82929134 30.8642495,8.21448819 29.3416764,8.60755906 Z"></path>
                        <path d="M4.26853801,21.7446457 L1.65762183,21.7446457 C0.763820663,21.7446457 0.0393762183,21.0130709 0.0393762183,20.1104724 L0.0393762183,17.4745669 C2.37504873,17.4745669 4.26853801,19.386063 4.26853801,21.7446457 Z"></path>
                        <path d="M27.7002729,21.7446457 L30.3111891,21.7446457 C31.2049903,21.7446457 31.9294347,21.0130709 31.9294347,20.1104724 L31.9294347,17.4745669 C29.5937622,17.4745669 27.7002729,19.386063 27.7002729,21.7446457 L27.7002729,21.7446457 Z"></path>
                    </g>
                    <path d="M15.9844055,21.1275591 C15.6499805,21.1275591 15.3789474,20.8538583 15.3789474,20.5161417 L15.3789474,19.668189 C15.3789474,19.3304724 15.6499805,19.0567717 15.9844055,19.0567717 C16.3188304,19.0567717 16.5898635,19.3304724 16.5898635,19.668189 L16.5898635,20.5161417 C16.5898635,20.8538583 16.3188304,21.1275591 15.9844055,21.1275591 Z" id="Path" fill="#7C5757"></path>
                </g>
            </g>
        </g>
    </g>
</svg>