<?xml version="1.0" encoding="UTF-8"?>
<svg width="40px" height="40px" viewBox="0 0 40 40" version="1.1" xmlns="http://www.w3.org/2000/svg" xmlns:xlink="http://www.w3.org/1999/xlink">
    <title>001-clipboard</title>
    <g id="Page-1" stroke="none" stroke-width="1" fill="none" fill-rule="evenodd">
        <g id="02_dashboard" transform="translate(-281.000000, -566.000000)" fill-rule="nonzero">
            <g id="001-clipboard" transform="translate(281.000000, 566.000000)">
                <path d="M28.5686719,40 L5.76070312,40 C2.57914062,40 0,37.4208594 0,34.2392969 L0,7.694375 C0,4.5128125 2.57914062,1.93367188 5.76070312,1.93367188 L28.5686719,1.93367188 C31.7502344,1.93367188 34.329375,4.5128125 34.329375,7.694375 L34.329375,34.2392969 C34.329375,37.4208594 31.7501562,40 28.5686719,40 L28.5686719,40 Z" id="Path" fill="#BF8F80"></path>
                <path d="M8.24023438,40 L5.76070313,40 C2.57890625,40 0.000390625,37.420625 0.000390625,34.2388281 L0.000390625,7.694375 C0.000390625,4.51257812 2.57898438,1.93320312 5.76070313,1.93320312 L8.24023438,1.93320312 C5.05929688,1.93320312 2.47992188,4.51257812 2.47992188,7.694375 L2.47992188,34.2388281 C2.47984375,37.420625 5.05929688,40 8.24023438,40 Z" id="Path" fill="#B47C67"></path>
                <path d="M26.3296094,36.2630469 L7.99976562,36.2630469 C5.44289062,36.2630469 3.37015625,34.1903125 3.37015625,31.6334375 L3.37015625,10.3003125 C3.37015625,7.7434375 5.44289062,5.67070312 7.99976562,5.67070312 L26.3296094,5.67070312 C28.8864844,5.67070312 30.9592188,7.7434375 30.9592188,10.3003125 L30.9592188,31.6334375 C30.9592188,34.1903125 28.8864844,36.2630469 26.3296094,36.2630469 Z" id="Path" fill="#F9F6F9"></path>
                <path d="M12.48875,6.44046875 L13.8892188,6.44046875 L13.8892188,6.98492187 C13.8892188,8.79390625 15.3557031,10.2603906 17.1646094,10.2603906 C18.9735937,10.2603906 20.4400781,8.79390625 20.4400781,6.98492187 L20.4400781,6.44046875 L21.8405469,6.44046875 C23.6189844,6.44046875 25.060625,4.99875 25.060625,3.22039062 C25.060625,1.44195313 23.6189844,0.0003125 21.8405469,0.0003125 L12.48875,0.0003125 C10.7103906,0.0003125 9.26867187,1.44195313 9.26867187,3.22039062 C9.26867187,4.99882813 10.7103906,6.44046875 12.48875,6.44046875 Z" id="Path" fill="#FFE07D"></path>
                <path d="M18.4677344,9.99140625 C18.0682812,10.1645313 17.6278125,10.2603906 17.1647656,10.2603906 C15.3560156,10.2603906 13.8896094,8.79390625 13.8896094,6.984375 L13.8896094,6.44 L12.4892188,6.44 C11.6001563,6.44 10.7948438,6.08 10.2117969,5.49695313 C9.62875,4.91390625 9.26875,4.10945312 9.26875,3.22039063 C9.26875,1.44148438 10.7101562,1.11022302e-15 12.4891406,1.11022302e-15 L15.0942969,1.11022302e-15 C13.3161719,1.11022302e-15 11.8739063,1.44148438 11.8739063,3.22039063 C11.8739063,4.10945313 12.2346875,4.91398438 12.8177344,5.49695313 C13.4,6.08 14.2052344,6.44 15.0942969,6.44 L16.4946875,6.44 L16.4946875,6.984375 C16.4946875,8.33085938 17.3064844,9.48726563 18.4677344,9.99140625 L18.4677344,9.99140625 Z" id="Path" fill="#FFD064"></path>
                <g id="Group" transform="translate(5.809242, 12.296787)">
                    <path d="M2.93591377,7.34782244 C2.73567939,7.34782244 2.54739814,7.24829119 2.43489814,7.08063494 L0.102554391,3.60680681 C-0.0833049836,3.33000994 -0.0095549836,2.95500994 0.267241891,2.76922869 C0.544038766,2.58336931 0.919038766,2.65711931 1.10482002,2.93391619 L2.85817939,5.54547869 L5.45060127,0.334853688 C5.59903877,0.0364161881 5.96138252,-0.0851463119 6.25989814,0.0632911881 C6.55833564,0.211806813 6.67997627,0.574150563 6.53146064,0.872588063 L3.47646064,7.01305681 C3.38067939,7.20555681 3.18966377,7.33258806 2.97513252,7.34657244 C2.96200752,7.34743181 2.94896064,7.34782244 2.93591377,7.34782244 L2.93591377,7.34782244 Z" id="Path" fill="#B3E59F"></path>
                    <g transform="translate(8.890679, 2.360322)" fill="#6B61B1" id="Path">
                        <path d="M12.9032813,1.2071875 L0.60359375,1.2071875 C0.270234375,1.2071875 2.22044605e-15,0.936953125 2.22044605e-15,0.60359375 C2.22044605e-15,0.270234375 0.270234375,0 0.60359375,0 L12.9032813,0 C13.2367188,0 13.506875,0.270234375 13.506875,0.60359375 C13.506875,0.936953125 13.2367188,1.2071875 12.9032813,1.2071875 Z"></path>
                        <path d="M6.7534375,4.06796875 L0.60359375,4.06796875 C0.270234375,4.06796875 4.4408921e-15,3.79773438 4.4408921e-15,3.464375 C4.4408921e-15,3.13101563 0.270234375,2.86078125 0.60359375,2.86078125 L6.7534375,2.86078125 C7.086875,2.86078125 7.35703125,3.13101563 7.35703125,3.464375 C7.35703125,3.79773438 7.08679688,4.06796875 6.7534375,4.06796875 Z"></path>
                    </g>
                </g>
                <g id="Group" transform="translate(5.809242, 21.937959)">
                    <path d="M2.93591377,7.34774431 C2.73567939,7.34774431 2.54739814,7.24821306 2.43489814,7.08063494 L0.102554391,3.60680681 C-0.0833049836,3.33000994 -0.0095549836,2.95500994 0.267241891,2.76922869 C0.544038766,2.58329119 0.919038766,2.65711931 1.10482002,2.93391619 L2.85817939,5.54547869 L5.45060127,0.334853688 C5.59903877,0.0364161881 5.96138252,-0.0851463119 6.25989814,0.0632911881 C6.55833564,0.211806813 6.67997627,0.574150563 6.53146064,0.872588063 L3.47646064,7.01313494 C3.38067939,7.20563494 3.18966377,7.33266619 2.97513252,7.34665056 C2.96200752,7.34727556 2.94896064,7.34774431 2.93591377,7.34774431 L2.93591377,7.34774431 Z" id="Path" fill="#B3E59F"></path>
                    <g transform="translate(8.890679, 2.359854)" fill="#6B61B1" id="Path">
                        <path d="M13.506875,1.2071875 L0.60359375,1.2071875 C0.270234375,1.2071875 2.22044605e-15,0.936953125 2.22044605e-15,0.60359375 C2.22044605e-15,0.270234375 0.270234375,4.4408921e-15 0.60359375,4.4408921e-15 L13.506875,4.4408921e-15 C13.8403125,4.4408921e-15 14.1104688,0.270234375 14.1104688,0.60359375 C14.1104688,0.936953125 13.8403125,1.2071875 13.506875,1.2071875 Z"></path>
                        <path d="M6.7534375,4.06835938 L0.60359375,4.06835938 C0.270234375,4.06835938 4.4408921e-15,3.798125 4.4408921e-15,3.46476563 C4.4408921e-15,3.13140625 0.270234375,2.86117188 0.60359375,2.86117188 L6.7534375,2.86117188 C7.086875,2.86117188 7.35703125,3.13140625 7.35703125,3.46476563 C7.35703125,3.79804688 7.08679688,4.06835938 6.7534375,4.06835938 Z"></path>
                    </g>
                </g>
                <g id="Group" transform="translate(22.065740, 15.248984)">
                    <path d="M17.3559004,6.61335938 L8.88707225,15.0822656 L4.69043163,13.1171875 L2.8247285,9.01992188 L11.2935566,0.551015625 C12.0282441,-0.183671875 13.2194941,-0.183671875 13.9541816,0.551015625 L17.3559004,3.95273438 C18.0905879,4.68742188 18.0905879,5.87867188 17.3559004,6.61335938 L17.3559004,6.61335938 Z" id="Path" fill="#B3E59F"></path>
                    <path d="M3.12488475,10.5157031 L2.82465038,9.01984375 L11.2935566,0.551015625 C12.0282441,-0.183671875 13.2194941,-0.183671875 13.9541816,0.551015625 L14.5794941,1.17632812 L4.48019725,11.275625 L3.12488475,10.5157031 Z" id="Path" fill="#95D6A4"></path>
                    <path d="M8.88707225,15.0822656 L3.14855663,16.9358594 L0.971134752,14.7584375 L2.8247285,9.01992188 C3.28230663,8.99492188 3.74793163,9.1575 4.097541,9.50710938 C4.57543163,9.985 4.70324413,10.6808594 4.48019725,11.275625 C5.07488475,11.0525781 5.7703535,11.1799219 6.24871288,11.6582813 C6.72699413,12.1365625 6.854416,12.8320313 6.63136913,13.4267969 C7.22605663,13.20375 7.92199413,13.3315625 8.39988475,13.8094531 C8.74949413,14.1590625 8.91199413,14.6246875 8.88707225,15.0822656 L8.88707225,15.0822656 Z" id="Path" fill="#F6EEDA"></path>
                    <path d="M1.86886913,15.65625 L0.971056627,14.7584375 L2.82465038,9.01992187 C3.2822285,8.99492187 3.7478535,9.1575 4.09746288,9.50710937 C4.5753535,9.985 4.703166,10.6808594 4.48011913,11.275625 L2.93511913,14.4410156 L1.86886913,15.65625 Z" id="Path" fill="#EFE1C1"></path>
                    <path d="M3.23269725,16.8515625 L1.70543163,18.3788281 C1.36425975,18.72 0.784337877,18.5896094 0.621837877,18.135 L0.258634752,17.1174219 L0.0655878767,16.5772656 C-0.0808964983,16.1658594 0.0223847517,15.7069531 0.331447252,15.3979688 L1.05527538,14.6741406 C1.5653535,14.1640625 2.34332225,14.0861719 2.93511913,14.4409375 C3.04136913,14.5048438 3.14168163,14.5823438 3.23308788,14.67375 C3.53363475,14.9742969 3.68433788,15.3688281 3.68387022,15.7628906 C3.68394725,16.1565625 3.53371288,16.550625 3.23269725,16.8515625 L3.23269725,16.8515625 Z" id="Path" fill="#6B61B1"></path>
                    <path d="M2.93511913,14.4409375 L0.258634752,17.1174219 L0.0655878767,16.5772656 C-0.0808964983,16.1658594 0.0223847517,15.7069531 0.331447252,15.3979688 L1.05527538,14.6741406 C1.5653535,14.1641406 2.34340038,14.08625 2.93511913,14.4409375 Z" id="Path" fill="#5E54AC"></path>
                </g>
            </g>
        </g>
    </g>
</svg>