<?xml version="1.0" encoding="UTF-8"?>
<svg width="41px" height="40px" viewBox="0 0 41 40" version="1.1" xmlns="http://www.w3.org/2000/svg" xmlns:xlink="http://www.w3.org/1999/xlink">
    <title>001-interview</title>
    <g id="Page-1" stroke="none" stroke-width="1" fill="none" fill-rule="evenodd">
        <g id="02_dashboard" transform="translate(-52.000000, -566.000000)" fill-rule="nonzero">
            <g id="001-interview" transform="translate(52.000000, 566.000000)">
                <polyline id="Path" fill="#FF445C" points="24.9601346 0 17.7450527 15.474239 22.7369202 15.474239 29.952002 4.9570641e-16"></polyline>
                <path d="M37.9276363,15.9613943 L28.704374,15.9613943 C27.6813478,15.9613943 26.7401253,15.4020826 26.2510564,14.5034364 L26.1185438,14.2599384 C25.6294749,13.3612923 24.6883322,12.8019805 23.6652262,12.8019805 L17.0553013,12.8019805 C15.9830014,12.8019805 15.0054217,13.4158282 14.5395545,14.3816874 C14.073767,15.3475467 13.0961075,15.9613943 12.0238076,15.9613943 L2.89454801,15.9613943 C1.29594489,15.9613943 2.26608645e-15,17.2573392 2.26608645e-15,18.8559423 L2.26608645e-15,37.105452 C2.26608645e-15,38.7040551 1.29594489,40 2.89454801,40 L37.9276363,40 C39.5262394,40 40.8221843,38.7040551 40.8221843,37.105452 L40.8221843,18.8559423 C40.8221843,17.2573392 39.5262394,15.9613943 37.9276363,15.9613943 Z" id="Path" fill="#FEE07D"></path>
                <path d="M36.3597296,24.5379598 L18.118193,24.5379598 C17.5718773,24.5379598 17.1290523,24.0951348 17.1290523,23.5488192 L17.1290523,21.5817002 C17.1290523,21.0353845 17.5718773,20.5925595 18.118193,20.5925595 L36.3597296,20.5925595 C36.9060452,20.5925595 37.3488702,21.0353845 37.3488702,21.5817002 L37.3488702,23.5488192 C37.3488702,24.0951348 36.9059655,24.5379598 36.3597296,24.5379598 Z" id="Path" fill="#FFF6E6"></path>
                <path d="M36.7327901,35.1965365 L20.0110029,35.1965365 C19.6707914,35.1965365 19.3950025,34.9207476 19.3950025,34.5805361 C19.3950025,34.2403247 19.6707914,33.9645357 20.0110029,33.9645357 L36.7327901,33.9645357 C37.0730015,33.9645357 37.3487905,34.2403247 37.3487905,34.5805361 C37.3487905,34.9207476 37.0730813,35.1965365 36.7327901,35.1965365 Z" id="Path" fill="#FF8B59"></path>
                <path d="M36.7327901,28.5780804 L20.0110029,28.5780804 C19.6707914,28.5780804 19.3950025,28.3022915 19.3950025,27.96208 C19.3950025,27.6218686 19.6707914,27.3460796 20.0110029,27.3460796 L36.7327901,27.3460796 C37.0730015,27.3460796 37.3487905,27.6218686 37.3487905,27.96208 C37.3487905,28.3022915 37.0730813,28.5780804 36.7327901,28.5780804 Z" id="Path" fill="#FF8B59"></path>
                <path d="M36.7327901,31.8873084 L20.0110029,31.8873084 C19.6707914,31.8873084 19.3950025,31.6115195 19.3950025,31.2713081 C19.3950025,30.9310966 19.6707914,30.6553077 20.0110029,30.6553077 L36.7327901,30.6553077 C37.0730015,30.6553077 37.3487905,30.9310966 37.3487905,31.2713081 C37.3487905,31.6115992 37.0730813,31.8873084 36.7327901,31.8873084 Z" id="Path" fill="#FF8B59"></path>
                <g id="Group" transform="translate(17.129052, 27.346159)" fill="#FF8B59">
                    <circle id="Oval" cx="0.616000383" cy="7.23429701" r="1"></circle>
                    <circle id="Oval" cx="0.616000383" cy="0.616000383" r="1"></circle>
                    <circle id="Oval" cx="0.616000383" cy="3.9251487" r="1"></circle>
                </g>
                <path d="M23.2937603,16.0721405 L17.2570203,16.0721405 C16.9266955,16.0721405 16.6590391,15.8044841 16.6590391,15.4741592 C16.6590391,15.1438344 16.9266955,14.876178 17.2570203,14.876178 L23.2937603,14.876178 C23.6240851,14.876178 23.8917415,15.1438344 23.8917415,15.4741592 C23.8917415,15.8044841 23.6240851,16.0721405 23.2937603,16.0721405 Z" id="Path" fill="#6E4848"></path>
                <polyline id="Path" fill="#FF6B61" points="15.521918 0 22.7369202 15.474239 17.7450527 15.474239 10.5300505 4.9570641e-16"></polyline>
                <g id="Group" transform="translate(4.509850, 21.380858)">
                    <g transform="translate(0.000000, 0.367958)" id="Path">
                        <path d="M7.65308827,12.8316404 L1.51190092,12.8316404 C0.563104058,12.8316404 -0.151044975,11.9676771 0.0274723504,11.0361021 L0.268658107,9.77571718 C0.337944197,9.41413787 0.478270456,9.07703593 0.677358335,8.78091563 C0.991736993,8.30898885 1.4531393,7.9403135 2.00431852,7.74010939 L4.59995565,6.79856803 L7.17566007,7.73293362 C7.72962987,7.93425396 8.19262679,8.30571989 8.50756356,8.78147374 L8.50756356,8.78203186 C8.70936229,9.08532793 8.85024666,9.4302435 8.91682191,9.80067293 L9.14086553,11.0538821 C9.30662593,11.9805138 8.59462963,12.8316404 7.65308827,12.8316404 L7.65308827,12.8316404 Z" fill="#B8B6FF"></path>
                        <path d="M6.02036036,7.317536 L6.01980224,7.31801438 C5.1882097,8.04396358 3.94815612,8.04372439 3.11672304,7.317536 L3.11672304,5.3713862 L6.02036036,5.3713862 L6.02036036,7.317536 Z" fill="#ECBD83"></path>
                        <path d="M6.87451673,1.93857537 L6.87451673,3.58796702 C6.87451673,4.88136053 5.81601025,5.97072284 4.52285594,5.94576709 C3.26964677,5.92160865 2.2616099,4.89826346 2.2616099,3.63955287 L2.2616099,1.93857537 C2.2616099,0.664715919 3.2942836,0 4.56806332,0 C5.84192277,0 6.87451673,0.66479565 6.87451673,1.93857537 Z" fill="#F7D4AD"></path>
                        <g transform="translate(0.000000, 8.780916)" fill="#A09EEF">
                            <path d="M2.17063703,1.82384271 L2.17063703,4.05072475 L1.51190092,4.05072475 C0.563104058,4.05072475 -0.151044975,3.18676149 0.0274723504,2.25518649 L0.268658107,0.99480155 C0.337944197,0.633222242 0.478270456,0.296120298 0.677358335,0 C1.52960116,0.17030505 2.17063703,0.922246496 2.17063703,1.82384271 L2.17063703,1.82384271 Z"></path>
                            <path d="M7.65308827,4.05072475 L7.01819168,4.05072475 L7.01819168,1.82384271 C7.01819168,0.923841112 7.6575532,0.172537513 8.50764329,0.00119596243 C8.70944202,0.304492035 8.8503264,0.6494076 8.91690164,1.01983703 L9.14094527,2.2730462 C9.30662593,3.19959816 8.59462963,4.05072475 7.65308827,4.05072475 L7.65308827,4.05072475 Z"></path>
                        </g>
                    </g>
                    <path d="M6.87451673,2.19403294 C6.78816824,2.26028926 6.72390519,2.30788857 6.72390519,2.30788857 C6.56053673,2.40228987 6.38313563,2.48863836 6.1929776,2.56494076 C5.32797784,2.91105229 4.48235267,2.92380922 4.07333352,2.63725662 C4.07333352,2.63725662 3.64621547,2.3185725 3.4861957,2.11501969 C3.32617593,1.91146689 2.81741351,1.85996077 2.39555769,2.30780884 C2.35138682,2.35469056 2.30649836,2.38546666 2.26168963,2.40356556 L2.26168963,2.30780884 C2.26168963,1.03307235 3.29476198,0 4.56949847,0 C5.20686672,0 5.78395845,0.258407616 6.20103042,0.676197158 C6.59394394,1.0686323 6.8457339,1.60155316 6.87451673,2.19403294 L6.87451673,2.19403294 Z" id="Path" fill="#6E4848"></path>
                </g>
            </g>
        </g>
    </g>
</svg>