<?xml version="1.0" encoding="UTF-8"?>
<svg width="37px" height="50px" viewBox="0 0 37 50" version="1.1" xmlns="http://www.w3.org/2000/svg" xmlns:xlink="http://www.w3.org/1999/xlink">
    <title>004-job</title>
    <g id="Page-1" stroke="none" stroke-width="1" fill="none" fill-rule="evenodd">
        <g id="02_dashboard" transform="translate(-169.000000, -421.000000)" fill-rule="nonzero">
            <g id="004-job" transform="translate(169.000000, 421.000000)">
                <g id="Group" transform="translate(12.398936, 0.000000)">
                    <path d="M8.11805585,4.60458984 L4.08407181,4.60458984 C3.6698883,4.60458984 3.33413298,4.27138672 3.33413298,3.86035156 L3.33413298,1.74980469 C3.33413298,0.784960938 4.12510638,3.55271368e-15 5.09734043,3.55271368e-15 L7.10488564,3.55271368e-15 C8.07711968,3.55271368e-15 8.86809309,0.784960938 8.86809309,1.74980469 L8.86809309,3.86025391 C8.86799468,4.27138672 8.53223936,4.60458984 8.11805585,4.60458984 Z M4.83401064,4.22685547 L7.36801862,4.22685547 L7.36801862,1.74980469 C7.36801862,1.60566406 7.24993351,1.48857422 7.10478723,1.48857422 L5.09724202,1.48857422 C4.95209574,1.48857422 4.83401064,1.60576172 4.83401064,1.74980469 L4.83401064,4.22685547 Z" id="Shape" fill="#4B3F4E"></path>
                    <path d="M11.2825399,12.4149414 L0.919587766,12.4149414 C0.43475,12.4149414 0.0417234043,12.0249023 0.0417234043,11.54375 L0.0417234043,4.73144531 C0.0417234043,4.25029297 0.43475,3.86025391 0.919587766,3.86025391 L11.2825399,3.86025391 C11.7673777,3.86025391 12.1604043,4.25029297 12.1604043,4.73144531 L12.1604043,11.54375 C12.1604043,12.0249023 11.7673777,12.4149414 11.2825399,12.4149414 Z" id="Path" fill="#7C5757"></path>
                </g>
                <path d="M17.80625,48.8297852 L32.1640213,48.8297852 L32.1640213,30.8874023 C32.1640213,29.7514648 31.4596436,28.7325195 30.3916622,28.3236328 L17.80625,23.5054687 L17.80625,48.8297852 Z" id="Path" fill="#B8B6FF"></path>
                <path d="M17.9638936,14.3911133 C17.5497101,14.3911133 17.2139548,14.7243164 17.2139548,15.1354492 L17.2139548,18.8253906 L6.26785904,24.012207 C5.30507181,24.468457 4.6920133,25.4331055 4.6920133,26.4918945 L4.6920133,48.7253906 L18.7139309,48.7253906 L18.7139309,15.1354492 C18.7139309,14.7243164 18.3780771,14.3911133 17.9638936,14.3911133 Z" id="Path" fill="#C2DDFF"></path>
                <path d="M9.61409574,29.2224609 L8.1423617,29.2224609 C7.76271809,29.2224609 7.45500798,28.9170898 7.45500798,28.540332 L7.45500798,27.0797852 C7.45500798,26.7030273 7.76271809,26.3976562 8.1423617,26.3976562 L9.61409574,26.3976562 C9.99373936,26.3976562 10.3014495,26.7030273 10.3014495,27.0797852 L10.3014495,28.540332 C10.3014495,28.9170898 9.99373936,29.2224609 9.61409574,29.2224609 Z" id="Path" fill="#A09EEF"></path>
                <path d="M15.2324867,29.2224609 L13.7608511,29.2224609 C13.3812074,29.2224609 13.0734973,28.9170898 13.0734973,28.540332 L13.0734973,27.0797852 C13.0734973,26.7030273 13.3812074,26.3976562 13.7608511,26.3976562 L15.2325851,26.3976562 C15.6122287,26.3976562 15.9199388,26.7030273 15.9199388,27.0797852 L15.9199388,28.540332 C15.9199388,28.9170898 15.6121303,29.2224609 15.2324867,29.2224609 Z" id="Path" fill="#FFFFFF"></path>
                <path d="M9.61409574,34.7674805 L8.1423617,34.7674805 C7.76271809,34.7674805 7.45500798,34.4621094 7.45500798,34.0853516 L7.45500798,32.6248047 C7.45500798,32.2480469 7.76271809,31.9426758 8.1423617,31.9426758 L9.61409574,31.9426758 C9.99373936,31.9426758 10.3014495,32.2480469 10.3014495,32.6248047 L10.3014495,34.0853516 C10.3014495,34.4620117 9.99373936,34.7674805 9.61409574,34.7674805 Z" id="Path" fill="#FFFFFF"></path>
                <path d="M15.2324867,34.7674805 L13.7608511,34.7674805 C13.3812074,34.7674805 13.0734973,34.4621094 13.0734973,34.0853516 L13.0734973,32.6248047 C13.0734973,32.2480469 13.3812074,31.9426758 13.7608511,31.9426758 L15.2325851,31.9426758 C15.6122287,31.9426758 15.9199388,32.2480469 15.9199388,32.6248047 L15.9199388,34.0853516 C15.9199388,34.4620117 15.6121303,34.7674805 15.2324867,34.7674805 Z" id="Path" fill="#A09EEF"></path>
                <path d="M9.61409574,40.2364258 L8.1423617,40.2364258 C7.76271809,40.2364258 7.45500798,39.9310547 7.45500798,39.5542969 L7.45500798,38.09375 C7.45500798,37.7169922 7.76271809,37.4116211 8.1423617,37.4116211 L9.61409574,37.4116211 C9.99373936,37.4116211 10.3014495,37.7169922 10.3014495,38.09375 L10.3014495,39.5542969 C10.3014495,39.9310547 9.99373936,40.2364258 9.61409574,40.2364258 Z" id="Path" fill="#FFFFFF"></path>
                <path d="M15.2324867,40.2364258 L13.7608511,40.2364258 C13.3812074,40.2364258 13.0734973,39.9310547 13.0734973,39.5542969 L13.0734973,38.09375 C13.0734973,37.7169922 13.3812074,37.4116211 13.7608511,37.4116211 L15.2325851,37.4116211 C15.6122287,37.4116211 15.9199388,37.7169922 15.9199388,38.09375 L15.9199388,39.5542969 C15.9199388,39.9310547 15.6121303,40.2364258 15.2324867,40.2364258 Z" id="Path" fill="#FFFFFF"></path>
                <path d="M13.5860851,47.3494141 L9.81976064,47.3494141 L9.81976064,43.562793 C9.81976064,43.1860352 10.1274707,42.8806641 10.5071144,42.8806641 L12.8987314,42.8806641 C13.278375,42.8806641 13.5860851,43.1860352 13.5860851,43.562793 L13.5860851,47.3494141 Z" id="Path" fill="#A09EEF"></path>
                <path d="M28.734141,31.7207031 L21.8249814,31.7207031 C21.4107979,31.7207031 21.0750426,31.3875 21.0750426,30.9764648 C21.0750426,30.565332 21.4107979,30.2322266 21.8249814,30.2322266 L28.734141,30.2322266 C29.1483245,30.2322266 29.4840798,30.5654297 29.4840798,30.9764648 C29.4840798,31.3875 29.1483245,31.7207031 28.734141,31.7207031 Z" id="Path" fill="#A09EEF"></path>
                <path d="M28.734141,34.8962891 L21.8249814,34.8962891 C21.4107979,34.8962891 21.0750426,34.5630859 21.0750426,34.1520508 C21.0750426,33.7410156 21.4107979,33.4078125 21.8249814,33.4078125 L28.734141,33.4078125 C29.1483245,33.4078125 29.4840798,33.7410156 29.4840798,34.1520508 C29.4840798,34.5630859 29.1483245,34.8962891 28.734141,34.8962891 Z" id="Path" fill="#A09EEF"></path>
                <path d="M28.734141,38.071875 L21.8249814,38.071875 C21.4107979,38.071875 21.0750426,37.7386719 21.0750426,37.3276367 C21.0750426,36.9166016 21.4107979,36.5833984 21.8249814,36.5833984 L28.734141,36.5833984 C29.1483245,36.5833984 29.4840798,36.9166016 29.4840798,37.3276367 C29.4840798,37.7386719 29.1483245,38.071875 28.734141,38.071875 Z" id="Path" fill="#A09EEF"></path>
                <path d="M28.734141,41.2474609 L21.8249814,41.2474609 C21.4107979,41.2474609 21.0750426,40.9142578 21.0750426,40.5032227 C21.0750426,40.0920898 21.4107979,39.7589844 21.8249814,39.7589844 L28.734141,39.7589844 C29.1483245,39.7589844 29.4840798,40.0921875 29.4840798,40.5032227 C29.4840798,40.9142578 29.1483245,41.2474609 28.734141,41.2474609 Z" id="Path" fill="#A09EEF"></path>
                <path d="M28.734141,44.4230469 L21.8249814,44.4230469 C21.4107979,44.4230469 21.0750426,44.0898438 21.0750426,43.6788086 C21.0750426,43.2677734 21.4107979,42.9345703 21.8249814,42.9345703 L28.734141,42.9345703 C29.1483245,42.9345703 29.4840798,43.2677734 29.4840798,43.6788086 C29.4840798,44.0898438 29.1483245,44.4230469 28.734141,44.4230469 Z" id="Path" fill="#A09EEF"></path>
                <path d="M34.3086436,47.3494141 L2.69135638,47.3494141 C1.2162766,47.3494141 0.0204680851,48.5361328 0.0204680851,50 L36.9795319,50 C36.9795319,48.5361328 35.7837234,47.3494141 34.3086436,47.3494141 Z" id="Path" fill="#5D5260"></path>
            </g>
        </g>
    </g>
</svg>