<?xml version="1.0" encoding="UTF-8"?>
<svg width="40px" height="40px" viewBox="0 0 40 40" version="1.1" xmlns="http://www.w3.org/2000/svg" xmlns:xlink="http://www.w3.org/1999/xlink">
    <title>badge(1)</title>
    <g id="Page-1" stroke="none" stroke-width="1" fill="none" fill-rule="evenodd">
        <g id="02_dashboard" transform="translate(-53.000000, -700.000000)" fill-rule="nonzero">
            <g id="badge(1)" transform="translate(53.000000, 700.000000)">
                <path d="M35.1420318,25.4507812 C35.1264068,25.490625 35.1068756,25.5296875 35.0834381,25.565625 L29.4232818,34.2023438 C29.3990631,34.2390625 29.3709381,34.2734375 29.3389068,34.3046875 C26.8709381,36.665625 23.7998443,38.56875 20.2107818,39.9601562 C20.1428131,39.9867188 20.0709381,40 19.9990631,40 C19.9271881,40 19.8553131,39.9867188 19.7865631,39.9601562 C16.1975006,38.5679687 13.1264068,36.665625 10.6584381,34.3046875 C10.6264068,34.2734375 10.5982818,34.2390625 10.5740631,34.2023438 L4.91390681,25.565625 C4.89046931,25.5296875 4.87093806,25.490625 4.85531306,25.4507812 C3.03812556,20.621875 2.86937556,15.7320313 3.04828181,12.4796875 C3.24203181,8.9578125 3.85765681,6.60078125 3.88343806,6.50234375 C3.96156306,6.20859375 4.25062556,6.0234375 4.54906306,6.07421875 C9.33031306,6.89140625 13.2904693,6.178125 16.3209381,3.95390625 C18.5795318,2.296875 19.4537506,0.36796875 19.4623443,0.3484375 C19.5568756,0.13671875 19.7670318,0 19.9982818,0 L20.0006256,0 C20.2326568,0.00078125 20.4420318,0.1375 20.5350006,0.35 C20.5435943,0.36796875 21.4178131,2.296875 23.6764068,3.95390625 C26.7068756,6.178125 30.6678131,6.89140625 35.4482818,6.07421875 C35.7475006,6.0234375 36.0357818,6.20859375 36.1139068,6.50234375 C36.1396881,6.60078125 36.7553131,8.9578125 36.9490631,12.4796875 C37.1279693,15.7320313 36.9592193,20.621875 35.1420318,25.4507812 Z" id="Path" fill="#FFE0A9"></path>
                <path d="M35.1420318,25.4507812 C35.1264068,25.490625 35.1068756,25.5296875 35.0834381,25.565625 L29.4232818,34.2023438 C29.3990631,34.2390625 29.3709381,34.2734375 29.3389068,34.3046875 C26.8709381,36.665625 23.7998443,38.56875 20.2107818,39.9601562 C20.1428131,39.9867188 20.0709381,40 19.9990631,40 C23.5365631,38.546875 26.2975006,36.0507812 28.4389068,33.88125 L33.7842193,25.2445313 C36.4514068,17.7414062 35.3545318,10.584375 34.8693756,8.2375 C34.7771881,7.790625 34.3529693,7.496875 33.9014068,7.559375 C23.2037506,9.04296875 20.0006256,0 20.0006256,0 C20.2326568,0.00078125 20.4420318,0.1375 20.5350006,0.35 C20.5435943,0.36796875 21.4178131,2.296875 23.6764068,3.95390625 C26.7068756,6.178125 30.6678131,6.89140625 35.4482818,6.07421875 C35.7475006,6.0234375 36.0357818,6.20859375 36.1139068,6.50234375 C36.1396881,6.60078125 36.7553131,8.9578125 36.9490631,12.4796875 C37.1279693,15.7320313 36.9592193,20.621875 35.1420318,25.4507812 Z" id="Path" fill="#FFCB78"></path>
                <g id="Group" transform="translate(5.729764, 4.575000)">
                    <path d="M28.156018,14.9242187 C27.8255493,16.9890625 27.2825805,18.9328125 26.5419555,20.7007812 C26.521643,20.75 26.4942993,20.7960937 26.4614868,20.8375 L19.6419555,29.475 C19.609143,29.5164062 19.5708618,29.553125 19.527893,29.584375 C18.0388305,30.675 16.3474243,31.6296875 14.5005493,32.4234375 C14.4263305,32.4554687 14.3474243,32.4710937 14.2692993,32.4710937 C14.190393,32.4710937 14.1114868,32.4554687 14.037268,32.4234375 C12.1911743,31.6296875 10.499768,30.675 9.01070552,29.584375 C8.96773677,29.553125 8.92945552,29.5164062 8.89664302,29.475 L2.07711177,20.8375 C2.04429927,20.7960937 2.01695552,20.75 1.99664302,20.7007812 C1.27633052,18.9820312 0.74273677,17.096875 0.40992427,15.0976562 C-0.25648198,11.0945312 0.0122680197,7.4015625 0.35601802,5.00859375 C0.39898677,4.70546875 0.66851802,4.48671875 0.97398677,4.50703125 C1.45992427,4.5390625 1.94586177,4.5546875 2.41773677,4.5546875 C7.20445552,4.5546875 10.4200805,2.91328125 12.274768,1.53671875 C12.834143,1.12109375 13.365393,0.6625 13.8536743,0.17265625 C13.9638305,0.0625 14.1130493,-1.11022302e-15 14.2692993,-1.11022302e-15 C14.424768,-1.11022302e-15 14.5739868,0.0625 14.684143,0.17265625 C14.684143,0.17265625 14.684143,0.17265625 14.6849243,0.1734375 C15.1732055,0.66328125 15.7036743,1.121875 16.2630493,1.53671875 C18.1177368,2.9140625 21.3333618,4.5546875 26.1200805,4.5546875 C26.5942993,4.5546875 27.0817993,4.53828125 27.5692993,4.50703125 C27.8732055,4.4859375 28.143518,4.7046875 28.187268,5.0078125 C28.5239868,7.33984375 28.7919555,10.953125 28.156018,14.9242187 L28.156018,14.9242187 Z" id="Path" fill="#FFA757"></path>
                    <path d="M28.156018,14.9242187 C27.8255493,16.9890625 27.2825805,18.9328125 26.5419555,20.7007812 C26.521643,20.75 26.4942993,20.7960938 26.4614868,20.8375 L19.6419555,29.475 C19.609143,29.5164062 19.5708618,29.553125 19.527893,29.584375 C18.0388305,30.675 16.3474243,31.6296875 14.5005493,32.4234375 C28.115393,24.6242187 27.2021118,9.76796875 26.8357055,6.5875 C26.7958618,6.24453125 26.512268,5.98046875 26.1669555,5.9703125 C17.7544555,5.725 14.7317993,0.259375 14.6849243,0.1734375 C15.1732055,0.66328125 15.7036743,1.121875 16.2630493,1.53671875 C18.1177368,2.9140625 21.3333618,4.5546875 26.1200805,4.5546875 C26.5942993,4.5546875 27.0817993,4.53828125 27.5692993,4.50703125 C27.8732055,4.4859375 28.143518,4.7046875 28.187268,5.0078125 C28.5239868,7.33984375 28.7919555,10.953125 28.156018,14.9242187 L28.156018,14.9242187 Z" id="Path" fill="#FF895A"></path>
                </g>
                <g id="Group" transform="translate(0.000000, 26.807292)" fill="#78C2EF">
                    <path d="M39.4748443,10.6427082 C39.3506256,10.6559895 37.3631256,10.8591145 34.7185943,10.8591145 C33.3537506,10.8591145 31.8146881,10.8052082 30.2654693,10.6427082 C30.0896881,10.6239582 29.9310943,10.5270832 29.8350006,10.379427 C29.7389068,10.2309895 29.7146881,10.0466145 29.7693756,9.87864571 C29.7717193,9.87161446 29.9014068,9.46692696 30.0248443,8.91067696 C30.1350006,8.40677071 30.2396881,7.77864571 30.2389068,7.20677071 C30.2389068,7.08880196 30.2740631,6.97395821 30.3396881,6.87708321 L34.8248443,0.263801956 C34.9318756,0.105989456 35.1092193,0.00989570649 35.2998443,0.00677070649 C35.9935943,-0.00572929351 36.6326568,0.000520706486 37.1912506,0.0138019565 C38.5389068,0.0481769565 39.4193756,0.132551956 39.4709381,0.137239456 C39.7896881,0.168489456 40.0248443,0.450520706 39.9975006,0.770833206 C39.9873443,0.895833206 39.7373443,3.63333321 38.3748443,5.39036446 C39.7373443,7.14739571 39.9873443,9.88489571 39.9975006,10.0098957 C40.0248443,10.3278645 39.7928131,10.6098957 39.4748443,10.6427082 L39.4748443,10.6427082 Z" id="Path"></path>
                    <path d="M10.1646881,10.379427 C10.0678131,10.5270832 9.91000056,10.6239582 9.73421931,10.6427082 C8.18500056,10.8052082 6.64593806,10.8591145 5.28109431,10.8591145 C2.63578181,10.8591145 0.649063065,10.6559895 0.524844315,10.6427082 C0.206875565,10.6098957 -0.0251556851,10.3278645 0.00218806487,10.0098957 C0.0123443149,9.88489571 0.262344315,7.14739571 1.62484431,5.39036446 C0.262344315,3.63333321 0.0123443149,0.895833206 0.00218806487,0.770833206 C-0.0251556851,0.450520706 0.210000565,0.168489456 0.528750565,0.137239456 C0.580313065,0.132551956 1.46000056,0.0481769565 2.80609431,0.0138019565 C3.36546931,0.000520706486 4.00531306,-0.00572929351 4.69984431,0.00677070649 C4.89046931,0.00989570649 5.06781306,0.105989456 5.17484431,0.263801956 L9.66000056,6.87708321 C9.72562556,6.97395821 9.76078181,7.08880196 9.76078181,7.20677071 C9.76000056,7.77864571 9.86468806,8.40677071 9.97484431,8.91067696 C10.0982818,9.46692696 10.2279693,9.87161446 10.2303131,9.87864571 C10.2850006,10.0473957 10.2607818,10.2309895 10.1646881,10.379427 L10.1646881,10.379427 Z" id="Path"></path>
                </g>
                <path d="M9.76078181,34.0140625 C9.76000056,34.5859375 9.86468806,35.2140625 9.97484431,35.7179687 C8.06156306,35.8546875 6.92640681,35.9796875 6.90140681,35.9828125 C6.83734431,35.9898437 6.77093806,35.99375 6.70531306,35.99375 C6.00062556,35.99375 5.36625056,35.575 5.08890681,34.9265625 C3.71859431,31.7210937 3.07796931,28.5484375 2.80609431,26.8210937 C3.36546931,26.8078125 4.00531306,26.8015625 4.69984431,26.8140625 C4.89046931,26.8171875 5.06781306,26.9132812 5.17484431,27.0710937 L9.66000056,33.684375 C9.72562556,33.78125 9.76078181,33.8960937 9.76078181,34.0140625 L9.76078181,34.0140625 Z" id="Path" fill="#74A1E2"></path>
                <path d="M37.1912506,26.8210937 C36.9193756,28.5484375 36.2787506,31.7210938 34.9084381,34.9265625 C34.6279693,35.5828125 33.9959381,35.99375 33.2967193,35.99375 C33.2303131,35.99375 33.1631256,35.9898438 33.0959381,35.9828125 C33.0717193,35.9796875 31.9365631,35.8546875 30.0248443,35.7179688 C30.1350006,35.2140625 30.2396881,34.5859375 30.2389068,34.0140625 C30.2389068,33.8960938 30.2740631,33.78125 30.3396881,33.684375 L34.8248443,27.0710937 C34.9318756,26.9132813 35.1092193,26.8171875 35.2998443,26.8140625 C35.9935943,26.8015625 36.6326568,26.8078125 37.1912506,26.8210937 L37.1912506,26.8210937 Z" id="Path" fill="#74A1E2"></path>
                <path d="M36.0685943,24.955625 C35.9692974,24.8357813 35.8264068,24.7603906 35.6714849,24.7460156 C35.6027349,24.7396875 28.6967193,24.1096094 19.9987506,24.1096094 C11.3007818,24.1096094 4.39476619,24.7396875 4.32601619,24.7460156 C4.17109431,24.7603906 4.02820369,24.8357813 3.92890681,24.955625 C3.82960994,25.0753906 3.78203181,25.2298438 3.79671931,25.3847656 C3.81429744,25.5703125 4.24898494,29.9804688 6.16679744,34.4660937 C6.25976619,34.6835156 6.47304744,34.8217385 6.70539119,34.8217385 C6.72710994,34.8217385 6.74914119,34.8204688 6.77109431,34.8180469 C6.82718806,34.8117187 12.4666412,34.1878125 19.9988287,34.1878125 C27.5310943,34.1878125 33.1706256,34.8117969 33.2266412,34.8180469 C33.4839849,34.8469531 33.7292193,34.7039063 33.8308599,34.4660937 C35.7485943,29.9804688 36.1832818,25.5703125 36.2008599,25.3847656 C36.2154693,25.2297656 36.1678912,25.0753906 36.0685943,24.955625 Z" id="Path" fill="#78C2EF"></path>
                <g id="Group" transform="translate(10.389529, 27.156484)" fill="#74A1E2">
                    <path d="M18.663597,0.211640625 C15.6052376,0.071171875 12.5588314,-4.4408921e-15 9.60922199,-4.4408921e-15 C6.66070637,-4.4408921e-15 3.61578449,0.071171875 0.559065744,0.211484375 C0.235784494,0.226328125 -0.0142155058,0.500390625 0.000628244184,0.823671875 C0.0153938692,1.14703125 0.292034494,1.39664062 0.612815744,1.38210937 C3.65172199,1.24257812 6.67859699,1.171875 9.60922199,1.171875 C12.5410189,1.171875 15.5693001,1.24265625 18.6099251,1.38234375 C18.6190657,1.38273438 18.6281282,1.38296875 18.6372689,1.38296875 C18.9484407,1.38296875 19.2077376,1.13804688 19.2221126,0.82390625 C19.2369564,0.500625 18.9868782,0.226484375 18.663597,0.211640625 L18.663597,0.211640625 Z" id="Path"></path>
                    <path d="M15.9646907,2.84007812 C13.8171907,2.77 11.6789095,2.734375 9.60914387,2.734375 C7.54047199,2.734375 5.40367512,2.76992187 3.25797199,2.83992187 C2.93445637,2.85046875 2.68086262,3.12125 2.69140949,3.4446875 C2.70203449,3.768125 2.97359699,4.0209375 3.29609699,4.01117187 C5.42922199,3.9415625 7.55312824,3.90625 9.60914387,3.90625 C11.6661751,3.90625 13.7915657,3.94164062 15.9263314,4.01132812 C15.9328939,4.01148437 15.9393782,4.01164062 15.9458626,4.01164062 C16.2605501,4.01164062 16.5207064,3.76171875 16.531097,3.44484375 C16.541722,3.12140625 16.2881282,2.850625 15.9646907,2.84007812 Z" id="Path"></path>
                </g>
                <g id="Group" transform="translate(8.716719, 14.801172)" fill="#FFCB78">
                    <circle id="Oval" cx="1.38117187" cy="6.46257812" r="1"></circle>
                    <circle id="Oval" cx="0.755390625" cy="3.571875" r="1"></circle>
                    <circle id="Oval" cx="0.5859375" cy="0.5859375" r="1"></circle>
                    <circle id="Oval" cx="21.2960938" cy="6.46257812" r="1"></circle>
                    <circle id="Oval" cx="21.921875" cy="3.571875" r="1"></circle>
                    <circle id="Oval" cx="22.0914063" cy="0.5859375" r="1"></circle>
                </g>
                <path d="M25.6332037,14.8517969 C25.5621099,14.6295313 25.3660162,14.4707813 25.1342193,14.4476563 C25.0801568,14.4422656 23.8681256,14.3229688 22.0348443,14.2584375 C21.2339068,12.1727344 20.5364849,10.6628125 20.5290631,10.6469531 C20.4332037,10.4400781 20.2262506,10.3077344 19.9986724,10.3077344 C19.7710943,10.3077344 19.5641412,10.4400781 19.4682037,10.6469531 C19.4608599,10.6628125 18.7657818,12.1674219 17.9667974,14.2472656 C16.8771099,14.2823438 15.8344537,14.3496875 14.8624224,14.4477344 C14.6307818,14.4710938 14.4350787,14.63 14.3641412,14.8521094 C14.2931256,15.0742969 14.3604693,15.3175 14.5354693,15.47125 C15.1967193,16.0522656 15.9806256,16.6805469 16.8695318,17.3421094 C16.4504693,18.6416406 16.1203131,19.8464063 15.8867974,20.9285156 C15.8378131,21.155625 15.9273443,21.3902344 16.1150787,21.5266406 C16.2170318,21.6007813 16.3375787,21.6382812 16.4585162,21.6382812 C16.5600787,21.6382812 16.6619537,21.6117969 16.7534381,21.5582813 C16.7684381,21.5495312 18.1895318,20.7160156 19.9986724,19.5240625 C21.8078131,20.7160156 23.2289849,21.5495312 23.2439849,21.5582813 C23.4442193,21.6754688 23.6946881,21.6630469 23.8823443,21.5266406 C24.0700787,21.3902344 24.1596099,21.1555469 24.1105474,20.9285156 C23.8771099,19.8464844 23.5469537,18.6417188 23.1278912,17.3421094 C24.0164849,16.6807031 24.8003131,16.0525 25.4618756,15.47125 C25.6371099,15.3174219 25.7043756,15.0739844 25.6332037,14.8517969 L25.6332037,14.8517969 Z" id="Path" fill="#FFE0A9"></path>
            </g>
        </g>
    </g>
</svg>