<?xml version="1.0" encoding="UTF-8"?>
<svg width="44px" height="38px" viewBox="0 0 44 38" version="1.1" xmlns="http://www.w3.org/2000/svg" xmlns:xlink="http://www.w3.org/1999/xlink">
    <title>wallet(1)</title>
    <g id="Page-1" stroke="none" stroke-width="1" fill="none" fill-rule="evenodd">
        <g id="02_dashboard" transform="translate(-279.000000, -703.000000)" fill-rule="nonzero">
            <g id="wallet(1)" transform="translate(279.000000, 703.000000)">
                <path d="M39.3566872,10.8574571 L37.99956,10.8574571 L37.99956,6.78607571 C37.99956,6.03422727 37.3915671,5.42894856 36.6424329,5.42894856 L4.07138143,5.42894856 C1.82669313,5.42894856 0,7.2556417 0,9.50032999 L0,33.9286186 C0,36.1733069 1.82669313,38 4.07138143,38 L39.3566872,38 C40.1058213,38 40.7138143,37.392007 40.7138143,36.6428729 L40.7138143,12.2145843 C40.7138143,11.4627358 40.1058213,10.8574571 39.3566872,10.8574571 Z" id="Path" fill="#2196F3"></path>
                <path d="M4.07138143,8.14320285 L35.2853057,8.14320285 L35.2853057,10.8574571 L4.07138143,10.8574571 C3.32224725,10.8574571 2.71425429,10.2494642 2.71425429,9.50032999 C2.71425429,8.75119581 3.32224725,8.14320285 4.07138143,8.14320285 Z" id="Path" fill="#FAFAFA"></path>
                <path d="M42.0709414,27.1429829 L33.9281786,27.1429829 C31.680776,27.1429829 29.8567972,25.319004 29.8567972,23.0716014 L29.8567972,23.0716014 C29.8567972,20.8214846 31.680776,19.00022 33.9281786,19.00022 L42.0709414,19.00022 C42.8200756,19.00022 43.4280686,19.608213 43.4280686,20.3573471 L43.4280686,25.7858557 C43.4280686,26.5349899 42.8200756,27.1429829 42.0709414,27.1429829 Z" id="Path" fill="#1976D2"></path>
                <path d="M34.7668832,10.8574571 L29.7129417,0.749574172 C29.3763741,0.0791533637 28.5620979,-0.189557811 27.891677,0.141581212 L6.46535371,10.8574571 L34.7668832,10.8574571 Z" id="Path" fill="#4CAF50"></path>
                <path d="M2.71425429,10.8574571 L29.3383746,10.8574571 L24.2844331,0.749574172 C23.9478656,0.0791533637 23.1335893,-0.189557811 22.4631685,0.144295467 L2.71425429,10.0187526 L2.71425429,10.8574571 Z" id="Path" fill="#81C784"></path>
            </g>
        </g>
    </g>
</svg>