<?xml version="1.0" encoding="UTF-8"?>
<svg width="35px" height="40px" viewBox="0 0 35 40" version="1.1" xmlns="http://www.w3.org/2000/svg" xmlns:xlink="http://www.w3.org/1999/xlink">
    <title>008-paper</title>
    <g id="Page-1" stroke="none" stroke-width="1" fill="none" fill-rule="evenodd">
        <g id="02_dashboard" transform="translate(-169.000000, -700.000000)" fill-rule="nonzero">
            <g id="008-paper" transform="translate(169.000000, 700.000000)">
                <path d="M29.6978326,9.65021553 L29.6978326,37.7227388 C29.6978326,38.9804707 28.6783815,40 27.4214308,40 L2.27726118,40 C1.01945113,40 0,38.9805489 0,37.7227388 L0,2.27726118 C0,1.01945113 1.01952926,0 2.27726118,0 L20.0144922,0 C20.1978512,0 20.3780071,0.0396092976 20.5427724,0.114687276 C20.6808971,0.176874655 20.8069125,0.264140109 20.916756,0.372421148 L21.0177714,0.472577202 L29.3221302,8.74381105 C29.4319738,8.85287333 29.5192392,8.98052933 29.5822078,9.11865407 C29.6583014,9.28427874 29.6978326,9.46521589 29.6978326,9.65021553 Z" id="Path" fill="#FFE8D2"></path>
                <path d="M29.5823641,9.11865407 L23.875969,9.11865407 C22.034957,9.11865407 20.5429286,7.62662573 20.5429286,5.7856137 L20.5429286,0.114687276 L21.0179277,0.472577202 L29.3222865,8.74381105 C29.43213,8.85287333 29.5193173,8.98052933 29.5823641,9.11865407 Z" id="Path" fill="#F7D4AD"></path>
                <path d="M4.64202218,21.4669893 C4.48694436,21.4669893 4.33186654,21.4078488 4.21358552,21.2894897 L3.56210242,20.6379284 C3.32546225,20.4013664 3.32554038,20.0176953 3.56210242,19.7811332 C3.79874258,19.5446493 4.18233558,19.5445712 4.41897574,19.7812114 L4.64467843,20.006914 L6.00553515,18.6629323 C6.24365968,18.4277765 6.62725268,18.4302765 6.86233035,18.6682448 C7.09748614,18.9063693 7.09506427,19.2899623 6.85693973,19.52504 L5.06764635,21.2921459 C4.94975596,21.4087863 4.79585001,21.4669893 4.64202218,21.4669893 L4.64202218,21.4669893 Z" id="Path" fill="#95D5A4"></path>
                <path d="M6.06780065,12.1771637 L6.85975223,11.3852903 C7.09639239,11.148572 7.09639239,10.7650571 6.85975223,10.5284169 C6.62319019,10.291933 6.23959719,10.291933 6.00295703,10.5284169 L5.21100545,11.3203685 L4.41905387,10.5284169 C4.18249183,10.291933 3.79882071,10.291933 3.56225867,10.5284169 C3.3256185,10.7650571 3.3256185,11.1486501 3.56225867,11.3852903 L4.35421025,12.1771637 L3.56225867,12.9691153 C3.3256185,13.2057555 3.3256185,13.5893485 3.56225867,13.8259886 C3.68053969,13.9442696 3.83561751,14.0034101 3.99069533,14.0034101 C4.14577315,14.0034101 4.30077285,13.9442696 4.41913199,13.8259886 L5.21108357,13.034037 L6.00303515,13.8259886 C6.12131617,13.9442696 6.27639399,14.0034101 6.43147181,14.0034101 C6.58654964,14.0034101 6.74154933,13.9442696 6.85990848,13.8259886 C7.09654864,13.5893485 7.09654864,13.2057555 6.85990848,12.9691153 L6.06780065,12.1771637 Z" id="Path" fill="#FF6B61"></path>
                <path d="M20.5424599,11.5330243 L9.23209134,11.5330243 C8.89748262,11.5330243 8.62623315,11.2617749 8.62623315,10.9271662 C8.62623315,10.5925574 8.89748262,10.321308 9.23209134,10.321308 L20.5424599,10.321308 C20.8770686,10.321308 21.1483181,10.5925574 21.1483181,10.9271662 C21.1483181,11.2617749 20.8770686,11.5330243 20.5424599,11.5330243 Z" id="Path" fill="#E2A876"></path>
                <g id="Group" transform="translate(20.927883, 20.770584)">
                    <g transform="translate(0.000000, 0.536015)" id="Path">
                        <path d="M11.1490854,18.6933229 L2.20254041,18.6933229 C0.820355607,18.6933229 -0.220111111,17.4347316 0.0400446309,16.0776248 L0.391450195,14.2414566 C0.492465622,13.7147388 0.696840223,13.2235679 0.986839657,12.7922406 C1.44488564,12.1048201 2.1169937,11.5675555 2.91996088,11.2759936 L6.70135975,9.90435566 L10.4536962,11.2655249 C11.2607258,11.5587274 11.9352558,12.0999764 12.394083,12.7931 L12.394083,12.7938813 C12.6881449,13.2357554 12.8933008,13.7382544 12.9902537,14.2778627 L13.3165812,16.1035623 C13.557987,17.4533253 12.5207234,18.6933229 11.1490854,18.6933229 L11.1490854,18.6933229 Z" fill="#C2DDFF"></path>
                        <path d="M8.77049633,10.6602136 L8.76971508,10.6609167 C7.55823307,11.7184927 5.7516741,11.7181802 4.54050459,10.6602136 L4.54050459,7.82506284 L8.77049633,7.82506284 L8.77049633,10.6602136 Z" fill="#ECBD83"></path>
                        <path d="M10.0148689,2.82413511 L10.0148689,5.22702104 C10.0148689,7.11131424 8.47284066,8.69818614 6.58893809,8.66185808 C4.76331666,8.62662378 3.29472577,7.13584544 3.29472577,5.30217714 L3.29472577,2.82413511 C3.29472577,0.968435609 4.79909784,0 6.65479734,0 C8.51049684,0 10.0148689,0.968435609 10.0148689,2.82413511 L10.0148689,2.82413511 Z" fill="#F7D4AD"></path>
                        <g transform="translate(0.000000, 12.792241)" fill="#A4CCFF">
                            <path d="M3.16222603,2.65686981 L3.16222603,5.90108222 L2.20254041,5.90108222 C0.820355607,5.90108222 -0.220111111,4.64249093 0.0400446309,3.28538421 L0.391450195,1.44921592 C0.492465622,0.922498198 0.696840223,0.431327283 0.986839657,0 C2.22832161,0.247968266 3.16222603,1.34335675 3.16222603,2.65686981 L3.16222603,2.65686981 Z"></path>
                            <path d="M11.1490854,5.90108222 L10.2241654,5.90108222 L10.2241654,2.65686981 C10.2241654,1.34577862 11.1555698,0.251171384 12.3940049,0.00156249695 C12.6880668,0.443436634 12.8932227,0.945935652 12.9901756,1.48554397 L13.3165031,3.31124353 C13.557987,4.66108465 12.5207234,5.90108222 11.1490854,5.90108222 L11.1490854,5.90108222 Z"></path>
                        </g>
                    </g>
                    <path d="M10.0148689,3.19624376 C9.88900977,3.29280607 9.7954162,3.36202468 9.7954162,3.36202468 C9.55736979,3.49952441 9.2989328,3.62538354 9.02198021,3.7365552 C7.76182642,4.24077297 6.52995383,4.25936668 5.93401749,3.8418675 C5.93401749,3.8418675 5.31175308,3.37757153 5.07862854,3.08108773 C4.84558212,2.78460394 4.10425544,2.70944783 3.48980352,3.36202468 C3.42542864,3.4303058 3.36003815,3.47514946 3.29472577,3.50147754 L3.29472577,3.36202468 C3.29472577,1.50499706 4.79972283,0 6.65675046,0 C7.58526427,0 8.42604388,0.37648364 9.03362082,0.985076201 C9.60619782,1.55671571 9.97291586,2.33312044 10.0148689,3.19624376 L10.0148689,3.19624376 Z" id="Path" fill="#6E4848"></path>
                </g>
                <path d="M12.9968496,14.0537226 L9.23209134,14.0537226 C8.89748262,14.0537226 8.62623315,13.7824731 8.62623315,13.4478644 C8.62623315,13.1132556 8.89748262,12.8420062 9.23209134,12.8420062 L12.9968496,12.8420062 C13.3314583,12.8420062 13.6027078,13.1132556 13.6027078,13.4478644 C13.6027078,13.7824731 13.3314583,14.0537226 12.9968496,14.0537226 Z" id="Path" fill="#E2A876"></path>
                <path d="M6.06780065,34.5679794 L6.85975223,33.7760278 C7.09639239,33.5393095 7.09639239,33.1557946 6.85975223,32.9191545 C6.62319019,32.6826705 6.23951906,32.6826705 6.00295703,32.9191545 L5.21100545,33.711106 L4.41905387,32.9191545 C4.18249183,32.6826705 3.79889883,32.6826705 3.56225867,32.9191545 C3.3256185,33.1557946 3.3256185,33.5393876 3.56225867,33.7760278 L4.35421025,34.5679794 L3.56225867,35.3599309 C3.3256185,35.5965711 3.3256185,35.9801641 3.56225867,36.2168043 C3.68053969,36.3350853 3.83561751,36.3942258 3.99069533,36.3942258 C4.14577315,36.3942258 4.30077285,36.3350853 4.41913199,36.2168043 L5.21108357,35.4248527 L6.00303515,36.2168043 C6.12131617,36.3350853 6.27639399,36.3942258 6.43147181,36.3942258 C6.58647151,36.3942258 6.74154933,36.3350853 6.85990848,36.2168043 C7.09654864,35.9801641 7.09654864,35.5965711 6.85990848,35.3599309 L6.06780065,34.5679794 Z" id="Path" fill="#FF6B61"></path>
                <path d="M18.7087135,33.9237619 L9.23209134,33.9237619 C8.89748262,33.9237619 8.62623315,33.6525124 8.62623315,33.3179037 C8.62623315,32.983295 8.89748262,32.7120455 9.23209134,32.7120455 L18.7087135,32.7120455 C19.0433222,32.7120455 19.3145717,32.983295 19.3145717,33.3179037 C19.3145717,33.6525905 19.0433222,33.9237619 18.7087135,33.9237619 Z" id="Path" fill="#E2A876"></path>
                <path d="M12.9968496,36.4444601 L9.23209134,36.4444601 C8.89748262,36.4444601 8.62623315,36.1732106 8.62623315,35.8386019 C8.62623315,35.5039932 8.89748262,35.2327437 9.23209134,35.2327437 L12.9968496,35.2327437 C13.3314583,35.2327437 13.6027078,35.5039932 13.6027078,35.8386019 C13.6027078,36.1732887 13.3314583,36.4444601 12.9968496,36.4444601 Z" id="Path" fill="#E2A876"></path>
                <path d="M24.2224527,19.2888686 L9.23209134,19.2888686 C8.89748262,19.2888686 8.62623315,19.0176191 8.62623315,18.6830104 C8.62623315,18.3484017 8.89748262,18.0771522 9.23209134,18.0771522 L24.2224527,18.0771522 C24.5570614,18.0771522 24.8283109,18.3484017 24.8283109,18.6830104 C24.8283109,19.0176191 24.5570614,19.2888686 24.2224527,19.2888686 Z" id="Path" fill="#E2A876"></path>
                <path d="M16.9637169,21.8095668 L9.23209134,21.8095668 C8.89748262,21.8095668 8.62623315,21.5383173 8.62623315,21.2037086 C8.62623315,20.8690999 8.89748262,20.5978504 9.23209134,20.5978504 L16.9637169,20.5978504 C17.2983256,20.5978504 17.5695751,20.8690999 17.5695751,21.2037086 C17.5695751,21.5383954 17.2983256,21.8095668 16.9637169,21.8095668 Z" id="Path" fill="#E2A876"></path>
                <path d="M4.64202218,28.6586159 C4.48694436,28.6586159 4.33194466,28.5994754 4.21358552,28.4811944 L3.56210242,27.8297113 C3.32554038,27.5931492 3.32546225,27.2094781 3.56210242,26.9729161 C3.79866446,26.7362759 4.18233558,26.736354 4.41889762,26.9728379 L4.6446003,27.1986188 L6.00553515,25.854637 C6.24365968,25.6194812 6.62725268,25.6219031 6.86233035,25.8599495 C7.09748614,26.0979959 7.09506427,26.481667 6.85693973,26.7167447 L5.06764635,28.4837725 C4.94975596,28.6004129 4.79585001,28.6586159 4.64202218,28.6586159 Z" id="Path" fill="#95D5A4"></path>
                <path d="M21.1884742,26.4804952 L9.23209134,26.4804952 C8.89748262,26.4804952 8.62623315,26.2092457 8.62623315,25.874637 C8.62623315,25.5400282 8.89748262,25.2687788 9.23209134,25.2687788 L21.1884742,25.2687788 C21.523083,25.2687788 21.7943324,25.5400282 21.7943324,25.874637 C21.7943324,26.2092457 21.523083,26.4804952 21.1884742,26.4804952 Z" id="Path" fill="#E2A876"></path>
                <path d="M16.9637169,29.0012715 L9.23209134,29.0012715 C8.89748262,29.0012715 8.62623315,28.730022 8.62623315,28.3954133 C8.62623315,28.0608046 8.89748262,27.7895551 9.23209134,27.7895551 L16.9637169,27.7895551 C17.2983256,27.7895551 17.5695751,28.0608046 17.5695751,28.3954133 C17.5695751,28.7301001 17.2983256,29.0012715 16.9637169,29.0012715 Z" id="Path" fill="#E2A876"></path>
                <circle id="Oval" fill="#FF8B59" cx="5.21092732" cy="4.98889651" r="1.48952834"></circle>
            </g>
        </g>
    </g>
</svg>